<svg width="204" height="49" viewBox="0 0 204 49" fill="none" xmlns="http://www.w3.org/2000/svg">
<g clip-path="url(#clip0_5_42)">
<path d="M50.479 22.0853L51.1341 22.7431C51.1898 22.799 51.2543 22.8122 51.3275 22.7828C51.4287 22.7416 51.5877 22.7026 51.8046 22.6658C52.9719 22.476 53.8248 23.264 53.9655 24.3874C54.0944 25.4072 53.7017 26.0987 52.7872 26.4622C52.7051 26.4946 52.6641 26.5549 52.6641 26.6432V33.7703C52.6641 33.8187 52.6775 33.8662 52.7027 33.9075C52.7279 33.9488 52.764 33.9822 52.807 34.0042C53.8292 34.5141 54.37 35.695 53.7391 36.6992C53.2862 37.4188 52.7432 37.4673 51.9716 37.5931C51.8866 37.6064 51.8266 37.6476 51.7914 37.7168L49.8349 41.6588C49.788 41.753 49.7931 41.8428 49.8503 41.9281C50.2922 42.6013 50.4153 43.5372 49.9602 44.217C49.4634 44.9601 48.7065 45.1845 47.6894 44.8902C47.6161 44.8681 47.5524 44.8843 47.4981 44.9387L46.5463 45.8945C46.4979 45.9445 46.4803 46.0033 46.4935 46.071C46.514 46.1711 46.5404 46.3087 46.5727 46.4838C46.909 48.2738 45.3768 48.9735 43.8864 48.6204C43.5273 48.5365 43.1763 48.215 42.8334 47.6558C42.7675 47.5484 42.6715 47.4947 42.5454 47.4947H4.12616C4.08284 47.4946 4.04038 47.506 4.00325 47.5278C3.96612 47.5495 3.93569 47.5808 3.91513 47.6183C3.40659 48.5335 2.65625 48.8801 1.6641 48.6579C-0.175861 48.2495 -0.0901287 45.8702 1.4003 45.1131C1.44664 45.0898 1.48559 45.0543 1.51277 45.0106C1.53995 44.967 1.55429 44.9168 1.55418 44.8659V11.7622C1.55413 11.7318 1.54544 11.7021 1.5291 11.6763C1.51277 11.6505 1.48946 11.6298 1.46185 11.6165C0.563492 11.1824 0.182458 10.4357 0.318751 9.37621C0.450647 8.34177 1.105 7.83484 2.28181 7.85544C2.31474 7.85607 2.34724 7.8473 2.37561 7.83013C2.40398 7.81296 2.42708 7.78808 2.44229 7.75833L4.42513 3.76549C4.43989 3.73599 4.44663 3.70298 4.4447 3.6697C4.44278 3.63641 4.43224 3.60401 4.41414 3.57567C4.12616 3.13864 3.91733 2.64202 3.98987 2.0836C4.10565 1.19777 4.57535 0.653328 5.39897 0.450265C6.3706 0.211887 7.2653 0.549589 7.6544 1.5031C7.67582 1.55593 7.71256 1.60115 7.75994 1.633C7.80732 1.66484 7.86317 1.68186 7.92039 1.68189H46.4144C46.444 1.68195 46.4729 1.67368 46.4978 1.65805C46.5227 1.64242 46.5426 1.62007 46.5551 1.5936C46.791 1.0624 47.1743 0.698944 47.7048 0.503238C49.4436 -0.134645 50.5647 1.42806 50.1537 3.01945C50.1273 3.12393 50.1515 3.21369 50.2262 3.28873L51.1671 4.23342C51.2037 4.2702 51.2477 4.28271 51.299 4.27094C51.5554 4.20767 51.7225 4.17235 51.8002 4.16499C53.9501 3.96635 54.7173 6.32585 53.1917 7.66342C52.9968 7.83411 52.8487 7.97096 52.7476 8.07396C52.6919 8.12987 52.6641 8.19683 52.6641 8.27481V15.2187C52.664 15.2636 52.6767 15.3077 52.7009 15.346C52.725 15.3842 52.7595 15.4151 52.8004 15.435C53.4804 15.7705 53.868 16.2678 53.9633 16.9271C54.1194 17.9954 53.3741 18.8959 52.3387 19.046C52.1248 19.0769 51.9848 19.1012 51.9189 19.1188C51.8485 19.1394 51.7965 19.1828 51.7628 19.249L50.4482 21.8955C50.4131 21.9661 50.4233 22.0294 50.479 22.0853ZM6.60905 2.43401C6.62856 2.35048 6.63001 2.26356 6.61329 2.1782C6.59658 2.09285 6.56204 2.01074 6.51164 1.93655C6.46125 1.86237 6.39598 1.79757 6.31958 1.74585C6.24317 1.69414 6.15712 1.65652 6.06634 1.63514C5.97556 1.61376 5.88182 1.60904 5.79049 1.62125C5.69915 1.63347 5.612 1.66237 5.53401 1.70632C5.45602 1.75027 5.38872 1.8084 5.33595 1.87739C5.28318 1.94638 5.24598 2.02488 5.22647 2.10841C5.20695 2.19194 5.20551 2.27886 5.22223 2.36422C5.23894 2.44957 5.27348 2.53169 5.32387 2.60587C5.37427 2.68005 5.43953 2.74485 5.51594 2.79657C5.59234 2.84828 5.67839 2.88591 5.76918 2.90728C5.85996 2.92866 5.95369 2.93338 6.04503 2.92117C6.13637 2.90895 6.22352 2.88005 6.30151 2.8361C6.3795 2.79215 6.4468 2.73403 6.49957 2.66504C6.55234 2.59605 6.58954 2.51754 6.60905 2.43401ZM49.0985 2.28445C49.0985 2.10298 49.0267 1.92895 48.8989 1.80063C48.7711 1.67231 48.5978 1.60022 48.417 1.60022C48.2363 1.60022 48.063 1.67231 47.9352 1.80063C47.8074 1.92895 47.7356 2.10298 47.7356 2.28445C47.7356 2.46592 47.8074 2.63996 47.9352 2.76828C48.063 2.8966 48.2363 2.96869 48.417 2.96869C48.5978 2.96869 48.7711 2.8966 48.8989 2.76828C49.0267 2.63996 49.0985 2.46592 49.0985 2.28445ZM25.2252 9.06941C30.0394 9.21214 35.1343 9.22318 40.5098 9.10252C41.0784 9.08927 41.8119 9.06941 42.7103 9.04292C42.7467 9.04151 42.7818 9.03022 42.8118 9.01033C42.8417 8.99044 42.8652 8.96274 42.8796 8.93035C43.2284 8.16813 43.8666 7.79511 44.7943 7.8113C44.8318 7.81205 44.8689 7.80187 44.9012 7.78194C44.9335 7.76202 44.9597 7.73316 44.9767 7.69873L46.8409 3.94648C46.8962 3.83532 46.9221 3.71177 46.9163 3.58766C46.9104 3.46354 46.8729 3.34301 46.8074 3.23759C46.7419 3.13218 46.6506 3.0454 46.5421 2.98556C46.4337 2.92573 46.3117 2.89484 46.188 2.89585C41.957 2.94147 37.4975 2.9606 32.8093 2.95324C28.7337 2.94588 26.243 2.92896 25.3373 2.90247C20.5231 2.75974 15.4282 2.7487 10.0527 2.86936C9.4841 2.88261 8.7506 2.90247 7.85224 2.92896C7.81584 2.93037 7.7807 2.94166 7.75079 2.96155C7.72088 2.98144 7.69739 3.00915 7.68297 3.04153C7.33418 3.80375 6.69595 4.17677 5.76828 4.16058C5.73075 4.15983 5.69367 4.17001 5.66137 4.18994C5.62907 4.20987 5.60287 4.23872 5.58582 4.27315L3.72168 8.0254C3.66638 8.13656 3.64042 8.26011 3.64627 8.38422C3.65212 8.50834 3.6896 8.62887 3.75511 8.73429C3.82061 8.83971 3.91197 8.92648 4.02043 8.98632C4.12889 9.04615 4.25082 9.07704 4.37457 9.07603C8.60552 9.03041 13.0651 9.01129 17.7533 9.01864C21.8289 9.026 24.3195 9.04292 25.2252 9.06941ZM46.7617 7.11382C46.4657 7.68623 46.273 8.10339 46.1836 8.36531C46.1572 8.44036 46.166 8.51025 46.21 8.57499C46.6379 9.20037 46.7339 9.86695 46.4979 10.5747C46.4841 10.6172 46.4821 10.6628 46.4921 10.7063C46.5022 10.7499 46.524 10.7899 46.5551 10.8219L47.4278 11.696C47.463 11.7313 47.5047 11.7445 47.5531 11.7357L48.5357 11.5393C48.6061 11.5246 48.6566 11.4856 48.6874 11.4223C49.404 9.96112 49.8554 9.05028 50.0415 8.68977C50.3376 8.11737 50.5303 7.7002 50.6197 7.43828C50.6461 7.36324 50.6373 7.29334 50.5933 7.2286C50.1654 6.60322 50.0694 5.93665 50.3053 5.22887C50.3192 5.18635 50.3212 5.14083 50.3111 5.09726C50.3011 5.05368 50.2793 5.0137 50.2482 4.98166L49.3755 4.10761C49.3403 4.07229 49.2985 4.05905 49.2502 4.06788L48.2675 4.26432C48.1972 4.27903 48.1466 4.31803 48.1159 4.3813C47.3992 5.84247 46.9478 6.75331 46.7617 7.11382ZM52.7037 5.98373C52.7037 5.81104 52.6353 5.64543 52.5137 5.52332C52.3921 5.40121 52.2272 5.33261 52.0552 5.33261C51.8832 5.33261 51.7182 5.40121 51.5966 5.52332C51.475 5.64543 51.4067 5.81104 51.4067 5.98373C51.4067 6.15642 51.475 6.32204 51.5966 6.44415C51.7182 6.56626 51.8832 6.63486 52.0552 6.63486C52.2272 6.63486 52.3921 6.56626 52.5137 6.44415C52.6353 6.32204 52.7037 6.15642 52.7037 5.98373ZM49.0369 21.4187C49.0369 21.638 49.0875 21.6498 49.1886 21.454L50.6285 18.6619C50.6563 18.609 50.6593 18.5552 50.6373 18.5008C50.6124 18.4419 50.5464 18.3073 50.4394 18.0969C49.7953 16.841 50.3691 16.0618 51.4067 15.3732C51.4756 15.3276 51.51 15.2636 51.51 15.1812V8.8222C51.51 8.64268 51.4697 8.63312 51.3891 8.79351C50.9641 9.63372 50.4995 10.5696 49.9954 11.6011C49.9895 11.6128 49.9551 11.6688 49.8921 11.7688C49.8041 11.9057 49.799 12.0469 49.8767 12.1926C50.5816 13.5316 50.3354 14.5757 49.1381 15.3246C49.0706 15.3673 49.0369 15.4284 49.0369 15.5078V21.4187ZM2.67086 10.2355C2.78678 10.1072 2.84168 9.93282 2.82348 9.75086C2.80528 9.56889 2.71547 9.39421 2.57381 9.26523C2.43214 9.13626 2.25023 9.06356 2.06809 9.06313C1.88595 9.0627 1.71851 9.13457 1.60259 9.26294C1.48667 9.3913 1.43177 9.56564 1.44997 9.7476C1.46817 9.92956 1.55798 10.1042 1.69964 10.2332C1.84131 10.3622 2.02322 10.4349 2.20536 10.4353C2.3875 10.4358 2.55494 10.3639 2.67086 10.2355ZM45.1353 10.2605C45.1979 10.2012 45.2474 10.1292 45.2809 10.0486C45.3145 9.96794 45.3314 9.88023 45.3307 9.79046C45.33 9.70069 45.3118 9.61062 45.2771 9.52539C45.2423 9.44016 45.1917 9.36144 45.1281 9.29373C45.0646 9.22601 44.9893 9.17062 44.9067 9.13073C44.824 9.09084 44.7355 9.06722 44.6463 9.06122C44.5571 9.05523 44.4689 9.06697 44.3867 9.09579C44.3046 9.12461 44.23 9.16993 44.1674 9.22917C44.1048 9.28841 44.0553 9.3604 44.0218 9.44104C43.9883 9.52169 43.9714 9.6094 43.9721 9.69917C43.9727 9.78894 43.991 9.87901 44.0257 9.96424C44.0605 10.0495 44.1111 10.1282 44.1746 10.1959C44.2382 10.2636 44.3134 10.319 44.3961 10.3589C44.4788 10.3988 44.5672 10.4224 44.6565 10.4284C44.7457 10.4344 44.8339 10.4227 44.916 10.3938C44.9982 10.365 45.0727 10.3197 45.1353 10.2605ZM49.1095 13.4331C49.1095 13.2487 49.0365 13.0718 48.9067 12.9414C48.7768 12.811 48.6007 12.7378 48.417 12.7378C48.2334 12.7378 48.0572 12.811 47.9274 12.9414C47.7975 13.0718 47.7246 13.2487 47.7246 13.4331C47.7246 13.6175 47.7975 13.7943 47.9274 13.9247C48.0572 14.0551 48.2334 14.1283 48.417 14.1283C48.6007 14.1283 48.7768 14.0551 48.9067 13.9247C49.0365 13.7943 49.1095 13.6175 49.1095 13.4331ZM52.7028 17.5069C52.7829 17.3581 52.7948 17.1801 52.7358 17.0121C52.6768 16.8441 52.5517 16.6998 52.3881 16.6109C52.3071 16.567 52.2191 16.5379 52.1291 16.5255C52.039 16.5131 51.9488 16.5175 51.8634 16.5385C51.7781 16.5595 51.6993 16.5967 51.6317 16.6479C51.564 16.6992 51.5088 16.7635 51.4691 16.8372C51.389 16.986 51.3771 17.164 51.4361 17.332C51.4951 17.5001 51.6202 17.6444 51.7838 17.7332C51.8648 17.7772 51.9528 17.8062 52.0428 17.8186C52.1329 17.8311 52.2231 17.8266 52.3085 17.8056C52.3938 17.7846 52.4726 17.7474 52.5402 17.6962C52.6079 17.6449 52.6631 17.5806 52.7028 17.5069ZM12.1103 19.004C12.1103 18.8161 12.036 18.6359 11.9036 18.5031C11.7713 18.3702 11.5918 18.2955 11.4047 18.2955C11.2175 18.2955 11.038 18.3702 10.9057 18.5031C10.7734 18.6359 10.699 18.8161 10.699 19.004C10.699 19.0971 10.7173 19.1892 10.7527 19.2752C10.7882 19.3611 10.8402 19.4393 10.9057 19.505C10.9712 19.5708 11.049 19.623 11.1346 19.6586C11.2202 19.6942 11.312 19.7126 11.4047 19.7126C11.4973 19.7126 11.5891 19.6942 11.6747 19.6586C11.7603 19.623 11.8381 19.5708 11.9036 19.505C11.9691 19.4393 12.0211 19.3611 12.0566 19.2752C12.092 19.1892 12.1103 19.0971 12.1103 19.004ZM39.8877 19.004C39.8877 18.8167 39.8136 18.6371 39.6817 18.5046C39.5498 18.3722 39.3708 18.2977 39.1843 18.2977C38.9977 18.2977 38.8188 18.3722 38.6869 18.5046C38.5549 18.6371 38.4808 18.8167 38.4808 19.004C38.4808 19.1914 38.5549 19.371 38.6869 19.5035C38.8188 19.6359 38.9977 19.7104 39.1843 19.7104C39.3708 19.7104 39.5498 19.6359 39.6817 19.5035C39.8136 19.371 39.8877 19.1914 39.8877 19.004ZM13.2094 22.8909C13.2563 22.9719 13.3259 23.0123 13.4183 23.0123H37.1663C37.2483 23.0123 37.304 22.9733 37.3333 22.8954C37.537 22.3333 37.9188 21.9624 38.4786 21.7829C38.5125 21.7721 38.5421 21.7509 38.5631 21.7223C38.584 21.6937 38.5953 21.6593 38.5951 21.624V20.9618C38.5951 20.8765 38.5541 20.8206 38.472 20.7941C37.9019 20.616 37.518 20.2695 37.3201 19.7545C37.3059 19.7174 37.281 19.6855 37.2489 19.663C37.2167 19.6405 37.1787 19.6286 37.1399 19.6287H14.2866C14.2489 19.6286 14.2121 19.6389 14.1802 19.6584C14.1484 19.6779 14.1228 19.7058 14.1063 19.739L12.8907 22.189C12.8785 22.2135 12.8725 22.2404 12.8733 22.2674C12.874 22.2944 12.8815 22.3206 12.8951 22.3436L13.2094 22.8909ZM12.0729 23.6546C12.0729 23.4749 12.0018 23.3026 11.8753 23.1755C11.7487 23.0484 11.577 22.977 11.3981 22.977C11.2191 22.977 11.0474 23.0484 10.9209 23.1755C10.7943 23.3026 10.7232 23.4749 10.7232 23.6546C10.7232 23.8343 10.7943 24.0067 10.9209 24.1338C11.0474 24.2609 11.2191 24.3322 11.3981 24.3322C11.577 24.3322 11.7487 24.2609 11.8753 24.1338C12.0018 24.0067 12.0729 23.8343 12.0729 23.6546ZM39.8591 23.6524C39.8591 23.4739 39.7885 23.3027 39.6628 23.1764C39.537 23.0502 39.3665 22.9792 39.1887 22.9792C39.0108 22.9792 38.8403 23.0502 38.7146 23.1764C38.5888 23.3027 38.5182 23.4739 38.5182 23.6524C38.5182 23.831 38.5888 24.0022 38.7146 24.1284C38.8403 24.2547 39.0108 24.3256 39.1887 24.3256C39.3665 24.3256 39.537 24.2547 39.6628 24.1284C39.7885 24.0022 39.8591 23.831 39.8591 23.6524ZM50.1361 23.7959C50.1654 23.843 50.2006 23.8687 50.2416 23.8731C50.2513 23.8743 50.2612 23.8729 50.2702 23.8691C50.2792 23.8653 50.287 23.8592 50.2928 23.8516C50.2986 23.8439 50.3023 23.8349 50.3033 23.8255C50.3044 23.8161 50.3028 23.8067 50.2987 23.7981C50.2343 23.6436 50.1471 23.5273 50.0372 23.4494C49.939 23.3787 49.9155 23.3986 49.9668 23.509C50.013 23.6039 50.0745 23.6988 50.1361 23.7959ZM49.0128 24.9968C49.1126 24.8547 49.1463 24.6745 49.1063 24.4958C49.0664 24.317 48.9562 24.1545 48.8 24.0438C48.6437 23.9331 48.4542 23.8834 48.2731 23.9056C48.0921 23.9278 47.9342 24.0201 47.8344 24.1621C47.7346 24.3042 47.701 24.4844 47.7409 24.6631C47.7808 24.8419 47.891 25.0044 48.0473 25.1151C48.2035 25.2258 48.393 25.2755 48.5741 25.2533C48.7552 25.2311 48.913 25.1388 49.0128 24.9968ZM52.7194 24.8505C52.7534 24.7734 52.7709 24.6898 52.7707 24.6045C52.7705 24.5192 52.7528 24.4338 52.7184 24.3533C52.6841 24.2728 52.6338 24.1987 52.5705 24.1352C52.5072 24.0717 52.4321 24.0202 52.3495 23.9834C52.2669 23.9466 52.1784 23.9254 52.0891 23.921C51.9997 23.9165 51.9113 23.9289 51.8288 23.9575C51.7463 23.986 51.6714 24.0301 51.6083 24.0873C51.5453 24.1445 51.4953 24.2136 51.4613 24.2907C51.4272 24.3678 51.4098 24.4514 51.41 24.5368C51.4102 24.6221 51.4279 24.7074 51.4623 24.7879C51.4966 24.8685 51.5469 24.9426 51.6102 25.006C51.6735 25.0695 51.7486 25.1211 51.8312 25.1579C51.9138 25.1946 52.0023 25.2158 52.0916 25.2203C52.181 25.2247 52.2694 25.2123 52.3519 25.1838C52.4344 25.1552 52.5093 25.1111 52.5723 25.0539C52.6354 24.9968 52.6854 24.9276 52.7194 24.8505ZM48.4698 30.0622C48.5885 30.0813 48.675 30.0371 48.7292 29.9297L50.6571 26.0517C50.6761 26.0119 50.6747 25.9737 50.6527 25.9369L50.235 25.2107C50.2323 25.2057 50.2281 25.2016 50.2229 25.1989C50.2178 25.1963 50.2121 25.1953 50.2064 25.196C50.2007 25.1967 50.1953 25.1991 50.191 25.2029C50.1867 25.2067 50.1837 25.2118 50.1822 25.2173C49.8107 26.4468 48.7775 26.5748 47.6828 26.4092C47.6452 26.4037 47.607 26.4069 47.5711 26.4184C47.5353 26.4298 47.5028 26.4494 47.4762 26.4754L46.5353 27.4223C46.4738 27.4841 46.4584 27.5562 46.4891 27.6386C46.6577 28.0933 46.6562 28.5649 46.4847 29.0535C46.4554 29.1344 46.4708 29.205 46.5309 29.2654L47.3772 30.1151C47.4388 30.1755 47.5099 30.1909 47.5905 30.1615C47.888 30.0496 48.1811 30.0165 48.4698 30.0622ZM49.8437 33.3818C49.766 33.4995 49.5257 33.6754 49.1227 33.9093C49.0655 33.9432 49.0369 33.9932 49.0369 34.0594V40.2219C49.0358 40.2328 49.0387 40.2438 49.0452 40.2526C49.0516 40.2615 49.0611 40.2676 49.0718 40.2698C49.0825 40.272 49.0937 40.2701 49.1031 40.2646C49.1125 40.259 49.1195 40.2501 49.1227 40.2396C49.5623 39.1948 50.0701 38.1766 50.6461 37.1848C50.6695 37.1451 50.6629 37.07 50.6263 36.9597C50.5999 36.8832 50.5303 36.736 50.4175 36.5182C49.9588 35.628 50.1456 34.8695 50.978 34.2426C51.085 34.1631 51.2294 34.0646 51.4111 33.9468C51.4405 33.928 51.4647 33.9021 51.4813 33.8715C51.4978 33.841 51.5062 33.8069 51.5056 33.7725L51.4287 27.6651C51.4272 27.4635 51.3818 27.4525 51.2924 27.632L49.8613 30.5102C49.8217 30.5897 49.8217 30.6684 49.8613 30.7464C50.3185 31.6558 50.4328 32.4857 49.8437 33.3818ZM45.3175 28.2876C45.3175 28.1137 45.2487 27.947 45.1262 27.824C45.0038 27.7011 44.8377 27.632 44.6646 27.632C44.4914 27.632 44.3253 27.7011 44.2029 27.824C44.0805 27.947 44.0117 28.1137 44.0117 28.2876C44.0117 28.4614 44.0805 28.6282 44.2029 28.7511C44.3253 28.874 44.4914 28.9431 44.6646 28.9431C44.8377 28.9431 45.0038 28.874 45.1262 28.7511C45.2487 28.6282 45.3175 28.4614 45.3175 28.2876ZM49.1095 32.0177C49.1095 31.8357 49.0375 31.6611 48.9092 31.5324C48.781 31.4036 48.6071 31.3313 48.4258 31.3313C48.2445 31.3313 48.0706 31.4036 47.9424 31.5324C47.8142 31.6611 47.7422 31.8357 47.7422 32.0177C47.7422 32.1998 47.8142 32.3744 47.9424 32.5031C48.0706 32.6319 48.2445 32.7042 48.4258 32.7042C48.6071 32.7042 48.781 32.6319 48.9092 32.5031C49.0375 32.3744 49.1095 32.1998 49.1095 32.0177ZM12.1103 32.9536C12.1103 32.8606 12.092 32.7684 12.0566 32.6825C12.0211 32.5965 11.9691 32.5184 11.9036 32.4526C11.8381 32.3868 11.7603 32.3346 11.6747 32.299C11.5891 32.2634 11.4973 32.2451 11.4047 32.2451C11.312 32.2451 11.2202 32.2634 11.1346 32.299C11.049 32.3346 10.9712 32.3868 10.9057 32.4526C10.8402 32.5184 10.7882 32.5965 10.7527 32.6825C10.7173 32.7684 10.699 32.8606 10.699 32.9536C10.699 33.1415 10.7734 33.3217 10.9057 33.4546C11.038 33.5875 11.2175 33.6621 11.4047 33.6621C11.5918 33.6621 11.7713 33.5875 11.9036 33.4546C12.036 33.3217 12.1103 33.1415 12.1103 32.9536ZM39.8899 32.9536C39.8899 32.7663 39.8158 32.5866 39.6839 32.4542C39.552 32.3217 39.373 32.2473 39.1865 32.2473C38.9999 32.2473 38.821 32.3217 38.6891 32.4542C38.5571 32.5866 38.483 32.7663 38.483 32.9536C38.483 33.1409 38.5571 33.3206 38.6891 33.453C38.821 33.5855 38.9999 33.6599 39.1865 33.6599C39.373 33.6599 39.552 33.5855 39.6839 33.453C39.8158 33.3206 39.8899 33.1409 39.8899 32.9536ZM37.4432 33.7018C37.4267 33.653 37.3953 33.6105 37.3536 33.5804C37.3118 33.5503 37.2616 33.5341 37.2102 33.5341H14.2976C14.2613 33.534 14.2257 33.5441 14.195 33.5633C14.1643 33.5824 14.1396 33.6098 14.1239 33.6422L12.9632 35.9775C12.9127 36.0794 12.8889 36.1926 12.8942 36.3063C12.8994 36.42 12.9335 36.5305 12.9931 36.6273C13.0528 36.7241 13.1361 36.8041 13.2351 36.8595C13.3341 36.915 13.4456 36.9441 13.559 36.9442H37.1069C37.1787 36.9442 37.2395 36.9177 37.2894 36.8648C37.3949 36.7574 37.4799 36.6301 37.5443 36.4829C37.6235 36.3019 37.9356 36.0959 38.4808 35.8649C38.5556 35.834 38.5929 35.7774 38.5929 35.6949V35.0019C38.5929 34.9327 38.5622 34.8834 38.5006 34.854C37.9686 34.6039 37.6162 34.2198 37.4432 33.7018ZM52.7156 36.0338C52.7887 35.8794 52.7926 35.6998 52.7265 35.5345C52.6605 35.3693 52.5299 35.2318 52.3635 35.1525C52.1971 35.0731 52.0084 35.0584 51.8391 35.1115C51.6698 35.1645 51.5337 35.2811 51.4606 35.4355C51.3876 35.5899 51.3837 35.7695 51.4498 35.9348C51.5158 36.1001 51.6464 36.2375 51.8128 36.3169C51.9792 36.3962 52.1679 36.411 52.3372 36.3579C52.5065 36.3048 52.6426 36.1883 52.7156 36.0338ZM12.1015 37.5667C12.1015 37.3799 12.0276 37.2008 11.8961 37.0688C11.7646 36.9367 11.5862 36.8626 11.4003 36.8626C11.2143 36.8626 11.0359 36.9367 10.9044 37.0688C10.7729 37.2008 10.699 37.3799 10.699 37.5667C10.699 37.7534 10.7729 37.9325 10.9044 38.0645C11.0359 38.1966 11.2143 38.2708 11.4003 38.2708C11.5862 38.2708 11.7646 38.1966 11.8961 38.0645C12.0276 37.9325 12.1015 37.7534 12.1015 37.5667ZM39.8899 37.56C39.8899 37.3715 39.8153 37.1908 39.6826 37.0575C39.5498 36.9242 39.3698 36.8493 39.1821 36.8493C38.9943 36.8493 38.8143 36.9242 38.6815 37.0575C38.5488 37.1908 38.4742 37.3715 38.4742 37.56C38.4742 37.7485 38.5488 37.9293 38.6815 38.0626C38.8143 38.1959 38.9943 38.2708 39.1821 38.2708C39.3698 38.2708 39.5498 38.1959 39.6826 38.0626C39.8153 37.9293 39.8899 37.7485 39.8899 37.56ZM49.1117 43.1686C49.1117 42.9842 49.0387 42.8073 48.9089 42.6769C48.779 42.5465 48.6029 42.4733 48.4192 42.4733C48.2356 42.4733 48.0594 42.5465 47.9296 42.6769C47.7997 42.8073 47.7268 42.9842 47.7268 43.1686C47.7268 43.3529 47.7997 43.5298 47.9296 43.6602C48.0594 43.7906 48.2356 43.8638 48.4192 43.8638C48.6029 43.8638 48.779 43.7906 48.9089 43.6602C49.0387 43.5298 49.1117 43.3529 49.1117 43.1686ZM2.86216 46.8458C2.86216 46.6584 2.78804 46.4788 2.65612 46.3463C2.5242 46.2139 2.34527 46.1395 2.15871 46.1395C1.97214 46.1395 1.79322 46.2139 1.66129 46.3463C1.52937 46.4788 1.45526 46.6584 1.45526 46.8458C1.45526 47.0331 1.52937 47.2127 1.66129 47.3452C1.79322 47.4776 1.97214 47.5521 2.15871 47.5521C2.34527 47.5521 2.5242 47.4776 2.65612 47.3452C2.78804 47.2127 2.86216 47.0331 2.86216 46.8458ZM45.3724 46.8502C45.3724 46.6646 45.299 46.4866 45.1683 46.3554C45.0376 46.2242 44.8604 46.1505 44.6756 46.1505C44.4907 46.1505 44.3135 46.2242 44.1828 46.3554C44.0521 46.4866 43.9787 46.6646 43.9787 46.8502C43.9787 47.0357 44.0521 47.2137 44.1828 47.3449C44.3135 47.4761 44.4907 47.5499 44.6756 47.5499C44.8604 47.5499 45.0376 47.4761 45.1683 47.3449C45.299 47.2137 45.3724 47.0357 45.3724 46.8502Z" fill="#0042F7"/>
<path d="M90.4041 37.6241C91.2761 38.1023 91.6586 38.7858 91.5516 39.6746C91.4263 40.7053 90.6437 41.2858 89.6127 41.2461C89.5649 41.2441 89.5174 41.2562 89.4761 41.2809C89.4347 41.3056 89.4013 41.3418 89.3797 41.3851L87.4276 45.3118C87.4088 45.3497 87.3997 45.3919 87.4012 45.4343C87.4028 45.4767 87.4149 45.5181 87.4364 45.5546C88.4652 47.2828 87.3551 49.0861 85.3415 48.6491C84.726 48.5166 84.361 48.0995 84.1918 47.5499C84.1771 47.5018 84.1477 47.4598 84.1077 47.43C84.0677 47.4002 84.0193 47.3842 83.9697 47.3843H60.6658C60.6156 47.3843 60.5665 47.3991 60.5247 47.427C60.4828 47.4549 60.4501 47.4946 60.4306 47.541C60.0774 48.3901 59.4209 48.7756 58.461 48.6976C57.5772 48.627 57.0343 48.1282 56.8364 47.2453C56.6005 46.1932 56.9713 45.4324 57.9488 44.963C57.979 44.9485 58.0046 44.9256 58.0225 44.8971C58.0404 44.8686 58.0499 44.8356 58.0499 44.8019V11.7578C58.0499 11.7284 58.0412 11.6999 58.0252 11.6758C58.0091 11.6518 57.9863 11.6334 57.9597 11.6232C57.0687 11.2538 56.6803 10.563 56.7947 9.5506C56.928 8.36165 57.5963 7.76497 58.7995 7.76055C58.8457 7.76063 58.891 7.74786 58.9302 7.72369C58.9694 7.69951 59.001 7.66488 59.0215 7.6237L60.9164 3.80744C60.9384 3.76312 60.9484 3.71397 60.9453 3.66507C60.9422 3.61617 60.9262 3.56931 60.8988 3.52933C60.1448 2.42573 60.4856 0.618028 62.0068 0.399514C63.0165 0.25531 63.7332 0.629064 64.1567 1.52078C64.1726 1.55314 64.1971 1.58041 64.2274 1.59951C64.2577 1.61862 64.2926 1.62881 64.3282 1.62893H69.5952C69.6656 1.62893 69.7161 1.59729 69.7469 1.53402C70.2642 0.473088 71.156 0.12582 72.4222 0.492217C73.026 0.667322 73.3719 1.08375 73.4598 1.7415C73.5682 2.53756 73.4642 3.14969 73.1476 3.57789C72.941 3.85159 72.653 3.95974 72.3826 4.12749C72.3167 4.16869 72.2837 4.22828 72.2837 4.30627V28.2015C72.2837 28.2795 72.3152 28.342 72.3782 28.3891C72.4266 28.4244 72.5241 28.4848 72.6706 28.5701C72.9857 28.754 73.2334 29.0263 73.4136 29.3868C73.4302 29.4193 73.4552 29.4467 73.4858 29.4658C73.5165 29.4848 73.5516 29.4949 73.5873 29.4949H87.6145C87.7127 29.4949 87.786 29.4508 87.8343 29.3625C88.2007 28.6856 88.7224 28.3074 89.3995 28.228C89.9534 28.1618 90.4246 28.2758 90.813 28.5701C91.6197 29.1815 91.7275 30.0997 91.4263 31.0091C91.271 31.477 90.9244 31.7882 90.3865 31.9427C90.3118 31.9648 90.2737 32.0156 90.2722 32.095C90.237 34.9291 90.2451 36.7162 90.2964 37.4563C90.3022 37.5314 90.3382 37.5873 90.4041 37.6241ZM63.0993 2.25136C63.0993 2.06404 63.0252 1.88438 62.8933 1.75193C62.7614 1.61947 62.5824 1.54505 62.3959 1.54505C62.2093 1.54505 62.0304 1.61947 61.8985 1.75193C61.7665 1.88438 61.6924 2.06404 61.6924 2.25136C61.6924 2.43868 61.7665 2.61834 61.8985 2.75079C62.0304 2.88325 62.2093 2.95767 62.3959 2.95767C62.5824 2.95767 62.7614 2.88325 62.8933 2.75079C63.0252 2.61834 63.0993 2.43868 63.0993 2.25136ZM72.3365 2.24915C72.3365 2.06359 72.2631 1.88562 72.1324 1.7544C72.0017 1.62319 71.8244 1.54947 71.6396 1.54947C71.4548 1.54947 71.2776 1.62319 71.1469 1.7544C71.0162 1.88562 70.9428 2.06359 70.9428 2.24915C70.9428 2.43472 71.0162 2.61269 71.1469 2.74391C71.2776 2.87512 71.4548 2.94884 71.6396 2.94884C71.8244 2.94884 72.0017 2.87512 72.1324 2.74391C72.2631 2.61269 72.3365 2.43472 72.3365 2.24915ZM64.1721 3.02168C63.7522 3.92884 63.1697 4.17605 62.2024 4.22681C62.1277 4.23123 62.0735 4.26654 62.0397 4.33276C61.3539 5.62765 60.7662 6.87178 60.2767 8.06515C60.2313 8.17641 60.2138 8.29721 60.2258 8.41686C60.2379 8.53652 60.279 8.65137 60.3457 8.75127C60.4124 8.85117 60.5026 8.93305 60.6082 8.98969C60.7139 9.04633 60.8318 9.07599 60.9516 9.07605H65.8801C65.9988 9.07605 66.0816 9.0216 66.1285 8.91271C66.3879 8.29322 66.7419 7.94522 67.1903 7.8687C67.6168 7.7966 67.9084 7.74657 68.0652 7.71861C68.1429 7.7039 68.1993 7.66123 68.2345 7.5906L70.1646 3.70591C70.1939 3.64558 70.1851 3.59114 70.1382 3.54258C69.9902 3.39396 69.8744 3.22621 69.7909 3.03933C69.7726 3.00043 69.7436 2.96753 69.7074 2.94448C69.6713 2.92143 69.6293 2.90916 69.5864 2.90911H64.3501C64.3127 2.90914 64.2761 2.91974 64.2446 2.93967C64.2131 2.9596 64.1879 2.98803 64.1721 3.02168ZM71.0043 5.23771C71.0043 5.02288 70.9567 5.01184 70.8614 5.2046L69.3644 8.21744C69.3278 8.28954 69.3329 8.35797 69.3798 8.42271C69.7799 8.97304 69.9118 9.60651 69.7755 10.3231C69.6626 10.9132 69.3072 11.3355 68.7093 11.5901C68.6375 11.621 68.6016 11.6754 68.6016 11.7534V34.417C68.6016 34.6245 68.6478 34.6355 68.7401 34.4501L70.1932 31.5255C70.2269 31.4593 70.221 31.3968 70.1756 31.3379C69.4838 30.4242 69.5234 29.5538 70.2943 28.7268C70.424 28.5855 70.6966 28.4553 70.901 28.3825C70.9699 28.3575 71.0043 28.3089 71.0043 28.2368V5.23771ZM59.3469 9.72276C59.3469 9.63029 59.3287 9.53874 59.2935 9.45331C59.2582 9.36789 59.2066 9.29027 59.1415 9.22488C59.0764 9.1595 58.999 9.10764 58.914 9.07226C58.8289 9.03687 58.7377 9.01866 58.6456 9.01866C58.4596 9.01866 58.2813 9.09284 58.1498 9.22488C58.0182 9.35693 57.9444 9.53602 57.9444 9.72276C57.9444 9.9095 58.0182 10.0886 58.1498 10.2206C58.2813 10.3527 58.4596 10.4269 58.6456 10.4269C58.7377 10.4269 58.8289 10.4086 58.914 10.3733C58.999 10.3379 59.0764 10.286 59.1415 10.2206C59.2066 10.1552 59.2582 10.0776 59.2935 9.9922C59.3287 9.90678 59.3469 9.81522 59.3469 9.72276ZM68.573 9.72717C68.573 9.63529 68.555 9.5443 68.52 9.45941C68.485 9.37452 68.4336 9.29739 68.3689 9.23242C68.3042 9.16745 68.2274 9.11591 68.1428 9.08075C68.0583 9.04558 67.9677 9.02749 67.8762 9.02749C67.6914 9.02749 67.5141 9.1012 67.3834 9.23242C67.2527 9.36364 67.1793 9.5416 67.1793 9.72717C67.1793 9.91274 67.2527 10.0907 67.3834 10.2219C67.5141 10.3531 67.6914 10.4269 67.8762 10.4269C67.9677 10.4269 68.0583 10.4088 68.1428 10.3736C68.2274 10.3384 68.3042 10.2869 68.3689 10.2219C68.4336 10.157 68.485 10.0798 68.52 9.99493C68.555 9.91004 68.573 9.81906 68.573 9.72717ZM72.3365 30.0776C72.3365 29.8926 72.2633 29.7152 72.133 29.5844C72.0027 29.4536 71.826 29.3801 71.6418 29.3801C71.4576 29.3801 71.2809 29.4536 71.1506 29.5844C71.0203 29.7152 70.9472 29.8926 70.9472 30.0776C70.9472 30.2626 71.0203 30.44 71.1506 30.5708C71.2809 30.7016 71.4576 30.7751 71.6418 30.7751C71.826 30.7751 72.0027 30.7016 72.133 30.5708C72.2633 30.44 72.3365 30.2626 72.3365 30.0776ZM90.3535 30.0754C90.3535 29.8951 90.2822 29.7222 90.1552 29.5947C90.0283 29.4672 89.856 29.3956 89.6765 29.3956C89.4969 29.3956 89.3247 29.4672 89.1977 29.5947C89.0707 29.7222 88.9994 29.8951 88.9994 30.0754C88.9994 30.2557 89.0707 30.4286 89.1977 30.5561C89.3247 30.6836 89.4969 30.7552 89.6765 30.7552C89.856 30.7552 90.0283 30.6836 90.1552 30.5561C90.2822 30.4286 90.3535 30.2557 90.3535 30.0754ZM84.1632 36.761C84.4732 35.9642 85.1942 35.5824 86.0735 35.642C86.1482 35.6479 86.2025 35.617 86.2362 35.5493L88.2212 31.552C88.2491 31.4961 88.2476 31.4417 88.2168 31.3887L87.8739 30.7905C87.8255 30.7067 87.753 30.6647 87.6563 30.6647H73.6686C73.5309 30.6647 73.4334 30.7273 73.3763 30.8524C73.0773 31.4983 72.6362 31.8603 72.0529 31.9383C71.9283 31.9545 71.7437 31.978 71.4989 32.0089C71.4271 32.0192 71.3744 32.0567 71.3407 32.1215L69.4391 35.9488C69.3901 36.0477 69.367 36.1575 69.3721 36.2679C69.3772 36.3782 69.4103 36.4855 69.4682 36.5794C69.5261 36.6734 69.6069 36.7509 69.703 36.8047C69.7991 36.8585 69.9073 36.8868 70.0173 36.8869H83.9785C84.0181 36.887 84.0569 36.875 84.0898 36.8526C84.1227 36.8302 84.1483 36.7983 84.1632 36.761ZM88.9906 37.5843C89.0146 37.5717 89.0347 37.5525 89.049 37.5289C89.0633 37.5052 89.0712 37.4779 89.0719 37.4497C89.0998 35.5677 89.0917 34.069 89.0478 32.9536C89.0434 32.8418 89.0163 32.8359 88.9664 32.936L87.4342 36.0172C87.3991 36.0878 87.402 36.1563 87.443 36.2225C87.6042 36.4829 87.7068 36.714 87.7508 36.9156C88.0146 38.1236 87.6563 38.9396 86.6758 39.3633C86.6452 39.3764 86.619 39.3982 86.6006 39.4261C86.5823 39.4539 86.5725 39.4866 86.5725 39.5201V43.8109C86.5725 43.9727 86.6099 43.9816 86.6846 43.8374L88.2234 40.8444C88.2389 40.8147 88.2464 40.7814 88.2453 40.7478C88.2441 40.7141 88.2343 40.6813 88.2168 40.6523C87.4298 39.3089 87.6878 38.2862 88.9906 37.5843ZM68.4556 37.9369C68.5066 37.8652 68.542 37.7833 68.5598 37.6961C68.5777 37.6089 68.5776 37.518 68.5597 37.4286C68.5417 37.3392 68.5061 37.253 68.4551 37.1751C68.404 37.0971 68.3384 37.0288 68.262 36.9741C68.1078 36.8636 67.9189 36.8152 67.7371 36.8395C67.5552 36.8638 67.3953 36.9589 67.2923 37.1038C67.2414 37.1755 67.206 37.2573 67.1881 37.3445C67.1702 37.4317 67.1703 37.5226 67.1883 37.612C67.2063 37.7014 67.2418 37.7876 67.2929 37.8656C67.3439 37.9436 67.4095 38.0119 67.4859 38.0666C67.6402 38.1771 67.829 38.2255 68.0108 38.2011C68.1927 38.1768 68.3527 38.0818 68.4556 37.9369ZM86.6231 37.5159C86.6231 37.3309 86.5499 37.1535 86.4196 37.0227C86.2893 36.8919 86.1126 36.8184 85.9284 36.8184C85.7442 36.8184 85.5675 36.8919 85.4372 37.0227C85.3069 37.1535 85.2338 37.3309 85.2338 37.5159C85.2338 37.7009 85.3069 37.8783 85.4372 38.0091C85.5675 38.1399 85.7442 38.2134 85.9284 38.2134C86.1126 38.2134 86.2893 38.1399 86.4196 38.0091C86.5499 37.8783 86.6231 37.7009 86.6231 37.5159ZM90.3535 39.3589C90.3535 39.1786 90.2822 39.0057 90.1552 38.8782C90.0283 38.7507 89.856 38.6791 89.6765 38.6791C89.4969 38.6791 89.3247 38.7507 89.1977 38.8782C89.0707 39.0057 88.9994 39.1786 88.9994 39.3589C88.9994 39.5392 89.0707 39.7121 89.1977 39.8396C89.3247 39.9671 89.4969 40.0387 89.6765 40.0387C89.856 40.0387 90.0283 39.9671 90.1552 39.8396C90.2822 39.7121 90.3535 39.5392 90.3535 39.3589ZM59.3535 46.784C59.3535 46.5961 59.2791 46.4159 59.1468 46.283C59.0144 46.1501 58.835 46.0755 58.6478 46.0755C58.4607 46.0755 58.2812 46.1501 58.1488 46.283C58.0165 46.4159 57.9422 46.5961 57.9422 46.784C57.9422 46.9719 58.0165 47.1521 58.1488 47.285C58.2812 47.4178 58.4607 47.4925 58.6478 47.4925C58.835 47.4925 59.0144 47.4178 59.1468 47.285C59.2791 47.1521 59.3535 46.9719 59.3535 46.784ZM86.6253 46.7994C86.6253 46.6144 86.5521 46.437 86.4218 46.3062C86.2915 46.1754 86.1148 46.1019 85.9306 46.1019C85.7464 46.1019 85.5697 46.1754 85.4394 46.3062C85.3091 46.437 85.236 46.6144 85.236 46.7994C85.236 46.9844 85.3091 47.1618 85.4394 47.2926C85.5697 47.4234 85.7464 47.4969 85.9306 47.4969C86.1148 47.4969 86.2915 47.4234 86.4218 47.2926C86.5521 47.1618 86.6253 46.9844 86.6253 46.7994Z" fill="#0042F7"/>
<path d="M135.143 29.5501H143.554C143.636 29.5501 143.698 29.514 143.741 29.4419C144.276 28.509 145.041 28.1353 146.036 28.3207C148.056 28.6981 148.03 31.221 146.337 31.9582C146.308 31.9708 146.282 31.9919 146.265 32.019C146.247 32.0461 146.238 32.0779 146.238 32.1105V37.4762C146.238 37.563 146.278 37.6255 146.357 37.6638C147.302 38.1207 147.83 39.0941 147.465 40.105C147.179 40.8966 146.53 41.3035 145.519 41.3255C145.485 41.3262 145.451 41.3364 145.422 41.3551C145.393 41.3738 145.37 41.4002 145.354 41.4315L143.374 45.4155C143.353 45.4562 143.345 45.502 143.35 45.5474C143.355 45.5928 143.373 45.6359 143.402 45.6715C143.788 46.1424 143.915 46.6883 143.785 47.3093C143.615 48.1171 143.084 48.5865 142.191 48.7175C141.337 48.8411 140.632 48.4806 140.076 47.636C140.013 47.5418 139.925 47.4947 139.813 47.4947H97.6166C97.5477 47.4947 97.4935 47.5226 97.454 47.5786C97.4012 47.6551 97.3536 47.7309 97.3111 47.8059C96.4911 49.2472 94.2247 48.9647 93.9103 47.2673C93.7367 46.3293 94.1961 45.5192 94.9985 45.0933C95.0396 45.0713 95.074 45.0387 95.098 44.9991C95.122 44.9594 95.1347 44.9142 95.1348 44.8681V11.76C95.1347 11.7268 95.1254 11.6942 95.108 11.6658C95.0905 11.6374 95.0656 11.6142 95.0359 11.5989C94.221 11.1722 93.8356 10.5365 93.8796 9.69185C93.9411 8.51982 94.5434 7.85104 95.7283 7.85766C95.8631 7.85913 95.9606 7.79954 96.0207 7.67888L97.9464 3.80523C97.9801 3.7346 97.9815 3.66397 97.9508 3.59334C97.854 3.37262 97.6826 3.16514 97.6166 2.95325C97.2143 1.66424 97.9178 0.465727 99.2697 0.38406C100.066 0.335501 100.655 0.675411 101.061 1.3773C101.113 1.46559 101.176 1.54358 101.25 1.61127C101.3 1.65802 101.365 1.68408 101.433 1.68411H143.552C143.631 1.68411 143.697 1.65394 143.75 1.59361C143.804 1.53328 143.85 1.46486 143.888 1.38834C144.462 0.218519 146.229 0.0132492 147.071 0.944691C147.424 1.3361 147.589 1.85259 147.566 2.49415C147.537 3.33583 147.131 3.90088 146.35 4.18929C146.317 4.20077 146.289 4.22225 146.269 4.25074C146.249 4.27922 146.238 4.3133 146.238 4.3482V9.60798C146.238 9.68449 146.268 9.74703 146.328 9.79559C146.371 9.82944 146.492 9.91331 146.691 10.0472C147.441 10.549 147.712 11.2362 147.502 12.1087C147.309 12.9136 146.778 13.3661 145.911 13.4662C145.71 13.4897 145.569 13.5074 145.488 13.5191C145.454 13.5246 145.421 13.5382 145.393 13.5589C145.364 13.5797 145.342 13.6069 145.326 13.6383L143.356 17.6003C143.342 17.6297 143.335 17.6626 143.337 17.6956C143.34 17.7285 143.351 17.7604 143.369 17.7879C144.62 19.6066 143.147 21.304 141.16 20.7764C140.656 20.6425 140.301 20.3004 140.096 19.7501C140.065 19.6692 140.007 19.6287 139.922 19.6287H137.124C137.045 19.6287 137.005 19.6684 137.005 19.7479V23.5112C137.005 23.5965 137.043 23.6598 137.117 23.701C138.249 24.3411 138.554 25.263 138.034 26.4666C137.729 27.1729 137.109 27.4945 136.174 27.4312C136.155 27.4297 136.135 27.4342 136.119 27.4441C136.102 27.4539 136.088 27.4687 136.08 27.4864L135.095 29.4684C135.09 29.4768 135.088 29.4863 135.088 29.4959C135.088 29.5055 135.091 29.5149 135.096 29.5231C135.101 29.5314 135.108 29.5382 135.116 29.5429C135.124 29.5476 135.134 29.5501 135.143 29.5501ZM100.14 2.29992C100.14 2.11376 100.067 1.93523 99.9355 1.8036C99.8044 1.67197 99.6266 1.59802 99.4412 1.59802C99.2558 1.59802 99.078 1.67197 98.9469 1.8036C98.8158 1.93523 98.7421 2.11376 98.7421 2.29992C98.7421 2.48607 98.8158 2.6646 98.9469 2.79623C99.078 2.92786 99.2558 3.00181 99.4412 3.00181C99.6266 3.00181 99.8044 2.92786 99.9355 2.79623C100.067 2.6646 100.14 2.48607 100.14 2.29992ZM146.328 2.30212C146.328 2.11714 146.255 1.93973 146.125 1.80893C145.995 1.67813 145.818 1.60465 145.634 1.60465C145.449 1.60465 145.273 1.67813 145.142 1.80893C145.012 1.93973 144.939 2.11714 144.939 2.30212C144.939 2.48711 145.012 2.66451 145.142 2.79531C145.273 2.92612 145.449 2.9996 145.634 2.9996C145.818 2.9996 145.995 2.92612 146.125 2.79531C146.255 2.66451 146.328 2.48711 146.328 2.30212ZM101.341 2.96429C101.31 2.96437 101.28 2.97289 101.255 2.98889C101.229 3.00488 101.209 3.02771 101.195 3.05478C100.82 3.84496 100.192 4.23269 99.3093 4.21798C99.2711 4.2173 99.2334 4.22751 99.2008 4.24743C99.1681 4.26736 99.1417 4.29618 99.1247 4.33055L97.2561 8.08942C97.2044 8.19349 97.18 8.30912 97.1853 8.42531C97.1906 8.5415 97.2255 8.6544 97.2865 8.75327C97.3475 8.85214 97.4327 8.9337 97.534 8.99019C97.6352 9.04669 97.7492 9.07624 97.865 9.07604H139.94C139.979 9.07609 140.016 9.06423 140.048 9.04209C140.079 9.01996 140.103 8.98863 140.116 8.95244C140.454 8.00996 141.175 7.91726 142.048 7.83118C142.119 7.82529 142.169 7.79071 142.2 7.72744L144.121 3.86483C144.156 3.79125 144.154 3.71989 144.115 3.65073L143.787 3.08347C143.742 3.00401 143.673 2.96429 143.583 2.96429H101.341ZM143.822 9.81987C143.796 10.6395 143.405 11.2369 142.648 11.6121C142.585 11.6445 142.555 11.6953 142.556 11.7644L142.64 15.8102C142.644 16.0265 142.694 16.0376 142.791 15.8433L144.185 13.0358C144.195 13.0158 144.199 12.9935 144.198 12.9713C144.196 12.9492 144.189 12.928 144.176 12.91C143.511 11.9873 143.511 11.1074 144.176 10.2701C144.308 10.1068 144.691 9.91478 144.915 9.80883C144.945 9.79487 144.971 9.77246 144.989 9.74429C145.006 9.71611 145.016 9.68335 145.016 9.64992V5.29951C145.016 5.09203 144.97 5.081 144.877 5.2664L143.356 8.3278C143.324 8.39254 143.329 8.45508 143.372 8.51541C143.687 8.95832 143.837 9.39314 143.822 9.81987ZM96.36 9.80056C96.3943 9.65112 96.3682 9.49409 96.2872 9.36403C96.2063 9.23396 96.0772 9.14151 95.9284 9.10701L95.7056 9.05536C95.5568 9.02086 95.4004 9.04714 95.2708 9.12841C95.1413 9.20969 95.0492 9.3393 95.0149 9.48874L94.9911 9.59198C94.9568 9.74142 94.9829 9.89844 95.0639 10.0285C95.1448 10.1586 95.2739 10.251 95.4227 10.2855L95.6455 10.3372C95.7943 10.3717 95.9507 10.3454 96.0803 10.2641C96.2098 10.1828 96.3019 10.0532 96.3362 9.90379L96.36 9.80056ZM142.58 9.98762C142.646 9.83112 142.64 9.6522 142.565 9.49021C142.49 9.32822 142.351 9.19644 142.179 9.12385C142.094 9.08791 142.003 9.06758 141.912 9.06402C141.821 9.06047 141.731 9.07376 141.648 9.10314C141.565 9.13252 141.49 9.17741 141.427 9.23525C141.365 9.29309 141.316 9.36274 141.283 9.44023C141.218 9.59673 141.223 9.77565 141.298 9.93764C141.374 10.0996 141.513 10.2314 141.685 10.304C141.77 10.3399 141.861 10.3603 141.952 10.3638C142.043 10.3674 142.132 10.3541 142.216 10.3247C142.299 10.2953 142.374 10.2504 142.436 10.1926C142.499 10.1348 142.548 10.0651 142.58 9.98762ZM146.337 11.5238C146.337 11.3383 146.264 11.1603 146.133 11.0291C146.002 10.8979 145.825 10.8242 145.64 10.8242C145.455 10.8242 145.278 10.8979 145.147 11.0291C145.017 11.1603 144.943 11.3383 144.943 11.5238C144.943 11.7094 145.017 11.8874 145.147 12.0186C145.278 12.1498 145.455 12.2235 145.64 12.2235C145.825 12.2235 146.002 12.1498 146.133 12.0186C146.264 11.8874 146.337 11.7094 146.337 11.5238ZM105.623 18.9996C105.623 18.8199 105.552 18.6476 105.425 18.5205C105.299 18.3934 105.127 18.322 104.948 18.322C104.859 18.322 104.771 18.3396 104.69 18.3736C104.608 18.4077 104.533 18.4576 104.471 18.5205C104.408 18.5834 104.358 18.6581 104.324 18.7403C104.29 18.8225 104.273 18.9107 104.273 18.9996C104.273 19.0886 104.29 19.1767 104.324 19.259C104.358 19.3412 104.408 19.4159 104.471 19.4788C104.533 19.5417 104.608 19.5916 104.69 19.6257C104.771 19.6597 104.859 19.6773 104.948 19.6773C105.037 19.6773 105.124 19.6597 105.206 19.6257C105.288 19.5916 105.362 19.5417 105.425 19.4788C105.488 19.4159 105.537 19.3412 105.571 19.259C105.605 19.1767 105.623 19.0886 105.623 18.9996ZM142.469 19.4961C142.525 19.4308 142.566 19.3541 142.591 19.2703C142.615 19.1865 142.622 19.0973 142.611 19.0077C142.601 18.9181 142.572 18.8299 142.528 18.7482C142.484 18.6665 142.424 18.5928 142.353 18.5313C142.209 18.4073 142.027 18.3407 141.845 18.3462C141.664 18.3516 141.499 18.4288 141.386 18.5606C141.33 18.6258 141.288 18.7026 141.264 18.7864C141.24 18.8702 141.232 18.9594 141.243 19.049C141.254 19.1386 141.282 19.2268 141.327 19.3085C141.371 19.3902 141.43 19.4639 141.502 19.5253C141.645 19.6494 141.828 19.716 142.009 19.7105C142.191 19.705 142.356 19.6279 142.469 19.4961ZM130.833 22.9064C131.169 22.0059 131.815 21.6351 132.752 21.6726C132.81 21.6745 132.868 21.6595 132.918 21.6294C132.969 21.5992 133.009 21.5552 133.035 21.5026L133.879 19.8075C133.938 19.6883 133.901 19.6287 133.769 19.6287H107.823C107.781 19.6286 107.74 19.6405 107.703 19.6631C107.667 19.6857 107.638 19.7182 107.619 19.7567L106.48 22.05C106.43 22.1512 106.406 22.2636 106.412 22.3765C106.417 22.4894 106.451 22.5991 106.51 22.6952C106.569 22.7913 106.652 22.8707 106.75 22.9258C106.848 22.9809 106.959 23.0099 107.071 23.0101H130.685C130.759 23.0101 130.808 22.9756 130.833 22.9064ZM133.853 25.2438C133.732 25.3476 133.567 25.3983 133.42 25.4888C133.354 25.5286 133.321 25.5867 133.321 25.6632V29.9474C133.32 29.9611 133.324 29.9747 133.332 29.9859C133.34 29.997 133.351 30.0049 133.365 30.0081C133.378 30.0113 133.392 30.0096 133.404 30.0034C133.416 29.9971 133.426 29.9866 133.431 29.9739L134.895 27.0273C134.926 26.9655 134.927 26.9029 134.899 26.8396C134.668 26.3276 134.542 25.9538 134.521 25.7184C134.439 24.7296 134.833 24.0541 135.704 23.6922C135.768 23.6657 135.801 23.6171 135.801 23.5465V19.8075C135.801 19.7705 135.79 19.7344 135.769 19.704C135.749 19.6737 135.72 19.6505 135.686 19.6375C135.508 19.5684 135.375 19.6228 135.288 19.8009C135.014 20.3571 134.655 21.1267 134.209 22.1096C134.165 22.2067 134.171 22.3016 134.227 22.3943C134.899 23.5112 134.775 24.461 133.853 25.2438ZM105.517 20.8294C105.492 20.8971 105.516 20.9287 105.588 20.9243C105.664 20.917 105.681 20.8868 105.64 20.8338C105.583 20.7603 105.542 20.7588 105.517 20.8294ZM133.38 23.6546C133.38 23.5654 133.363 23.477 133.329 23.3945C133.295 23.312 133.245 23.2371 133.182 23.1739C133.119 23.1108 133.045 23.0607 132.962 23.0266C132.88 22.9924 132.792 22.9748 132.703 22.9748C132.524 22.9748 132.352 23.0464 132.225 23.1739C132.098 23.3014 132.026 23.4743 132.026 23.6546C132.026 23.8349 132.098 24.0079 132.225 24.1354C132.352 24.2628 132.524 24.3345 132.703 24.3345C132.792 24.3345 132.88 24.3169 132.962 24.2827C133.045 24.2486 133.119 24.1985 133.182 24.1354C133.245 24.0722 133.295 23.9973 133.329 23.9148C133.363 23.8323 133.38 23.7439 133.38 23.6546ZM105.574 23.2838C105.491 23.1404 105.349 23.0395 105.177 23.0035C105.006 22.9674 104.821 22.9991 104.661 23.0916C104.582 23.1374 104.512 23.1968 104.454 23.2662C104.397 23.3357 104.354 23.414 104.327 23.4967C104.3 23.5793 104.29 23.6646 104.297 23.7478C104.305 23.8309 104.33 23.9103 104.37 23.9813C104.453 24.1248 104.595 24.2256 104.767 24.2617C104.938 24.2977 105.124 24.266 105.283 24.1735C105.362 24.1277 105.432 24.0684 105.49 23.9989C105.547 23.9294 105.59 23.8511 105.617 23.7685C105.644 23.6859 105.654 23.6006 105.647 23.5174C105.639 23.4342 105.614 23.3549 105.574 23.2838ZM137.087 25.4888C137.087 25.3027 137.013 25.1242 136.882 24.9925C136.751 24.8609 136.573 24.7869 136.388 24.7869C136.202 24.7869 136.024 24.8609 135.893 24.9925C135.762 25.1242 135.689 25.3027 135.689 25.4888C135.689 25.675 135.762 25.8535 135.893 25.9851C136.024 26.1168 136.202 26.1907 136.388 26.1907C136.573 26.1907 136.751 26.1168 136.882 25.9851C137.013 25.8535 137.087 25.675 137.087 25.4888ZM146.328 30.1019C146.328 29.914 146.254 29.7338 146.122 29.6009C145.989 29.468 145.81 29.3934 145.623 29.3934C145.435 29.3934 145.256 29.468 145.124 29.6009C144.991 29.7338 144.917 29.914 144.917 30.1019C144.917 30.2898 144.991 30.47 145.124 30.6029C145.256 30.7358 145.435 30.8104 145.623 30.8104C145.81 30.8104 145.989 30.7358 146.122 30.6029C146.254 30.47 146.328 30.2898 146.328 30.1019ZM131.708 34.6421C131.233 34.4501 131.004 34.1124 130.883 33.6754C130.872 33.6349 130.849 33.5991 130.816 33.5736C130.783 33.5481 130.742 33.5342 130.701 33.5341H107.828C107.747 33.5341 107.688 33.5709 107.652 33.6445L106.471 36.0194C106.423 36.1167 106.4 36.2248 106.405 36.3335C106.41 36.4421 106.443 36.5477 106.5 36.6401C106.557 36.7326 106.636 36.8088 106.731 36.8617C106.826 36.9145 106.932 36.9422 107.041 36.942H139.958C139.986 36.9422 140.015 36.9333 140.038 36.9166C140.061 36.9 140.078 36.8764 140.087 36.8493C140.402 35.8848 141.178 35.6972 142.09 35.6464C142.115 35.6451 142.14 35.6371 142.161 35.6231C142.182 35.6092 142.2 35.5898 142.211 35.5669L144.17 31.6271C144.202 31.5609 144.194 31.5005 144.148 31.4461C143.982 31.2548 143.855 31.0503 143.767 30.8325C143.736 30.7574 143.681 30.7199 143.6 30.7199H134.638C134.566 30.7199 134.514 30.7516 134.482 30.8148L134.176 31.4306C134.134 31.5175 134.14 31.5999 134.194 31.6778C135.515 33.5915 133.708 35.4544 131.708 34.6421ZM133.413 32.9602C133.413 32.8678 133.395 32.7762 133.36 32.6908C133.325 32.6054 133.273 32.5277 133.208 32.4624C133.143 32.397 133.066 32.3451 132.98 32.3097C132.895 32.2743 132.804 32.2561 132.712 32.2561C132.62 32.2561 132.529 32.2743 132.444 32.3097C132.359 32.3451 132.281 32.397 132.216 32.4624C132.151 32.5277 132.099 32.6054 132.064 32.6908C132.029 32.7762 132.011 32.8678 132.011 32.9602C132.011 33.147 132.085 33.3261 132.216 33.4581C132.348 33.5902 132.526 33.6643 132.712 33.6643C132.898 33.6643 133.076 33.5902 133.208 33.4581C133.339 33.3261 133.413 33.147 133.413 32.9602ZM105.542 33.3073C105.586 33.2321 105.615 33.1486 105.627 33.0614C105.639 32.9743 105.633 32.8853 105.61 32.7995C105.587 32.7137 105.547 32.6328 105.493 32.5613C105.439 32.4899 105.372 32.4294 105.294 32.3832C105.217 32.3371 105.132 32.3062 105.044 32.2923C104.955 32.2784 104.866 32.2819 104.78 32.3024C104.694 32.3229 104.613 32.3602 104.542 32.412C104.471 32.4638 104.412 32.5291 104.367 32.6043C104.323 32.6795 104.294 32.7631 104.282 32.8502C104.27 32.9373 104.276 33.0263 104.299 33.1121C104.322 33.198 104.362 33.2789 104.416 33.3503C104.47 33.4217 104.537 33.4822 104.615 33.5284C104.692 33.5746 104.777 33.6054 104.865 33.6193C104.953 33.6332 105.043 33.6298 105.129 33.6092C105.215 33.5887 105.296 33.5515 105.367 33.4997C105.438 33.4479 105.497 33.3825 105.542 33.3073ZM143.697 39.2331C143.802 38.401 144.288 38.0677 144.928 37.6307C144.956 37.6124 144.978 37.5878 144.994 37.5589C145.01 37.53 145.018 37.4978 145.018 37.4651V33.1147C145.018 32.9352 144.978 32.9264 144.897 33.0882L143.33 36.2401C143.318 36.2648 143.314 36.2928 143.32 36.3199C143.326 36.347 143.34 36.3717 143.361 36.3902C143.772 36.7522 143.807 37.1429 143.816 37.7079C143.83 38.554 143.446 39.1397 142.661 39.4649C142.63 39.4779 142.604 39.5 142.585 39.5283C142.566 39.5566 142.556 39.5898 142.556 39.6238V43.8351C142.556 44.0559 142.605 44.0676 142.703 43.8705L144.159 40.9393C144.192 40.8716 144.19 40.8046 144.152 40.7384C143.799 40.1204 143.647 39.6186 143.697 39.2331ZM105.658 37.5512C105.658 37.3674 105.585 37.1911 105.456 37.0612C105.326 36.9312 105.151 36.8582 104.968 36.8582C104.785 36.8582 104.609 36.9312 104.48 37.0612C104.35 37.1911 104.277 37.3674 104.277 37.5512C104.277 37.735 104.35 37.9113 104.48 38.0413C104.609 38.1713 104.785 38.2443 104.968 38.2443C105.151 38.2443 105.326 38.1713 105.456 38.0413C105.585 37.9113 105.658 37.735 105.658 37.5512ZM142.635 37.5733C142.635 37.3883 142.562 37.2109 142.432 37.0801C142.301 36.9493 142.125 36.8758 141.94 36.8758C141.849 36.8758 141.759 36.8939 141.675 36.9289C141.59 36.964 141.514 37.0153 141.449 37.0801C141.385 37.1449 141.334 37.2218 141.299 37.3064C141.264 37.391 141.246 37.4817 141.246 37.5733C141.246 37.6649 141.264 37.7556 141.299 37.8402C141.334 37.9248 141.385 38.0017 141.449 38.0665C141.514 38.1313 141.59 38.1826 141.675 38.2177C141.759 38.2527 141.849 38.2708 141.94 38.2708C142.125 38.2708 142.301 38.1973 142.432 38.0665C142.562 37.9357 142.635 37.7583 142.635 37.5733ZM146.311 39.4141C146.311 39.2315 146.238 39.0563 146.11 38.9272C145.981 38.798 145.807 38.7255 145.625 38.7255C145.443 38.7255 145.268 38.798 145.14 38.9272C145.011 39.0563 144.939 39.2315 144.939 39.4141C144.939 39.5967 145.011 39.7719 145.14 39.9011C145.268 40.0302 145.443 40.1028 145.625 40.1028C145.807 40.1028 145.981 40.0302 146.11 39.9011C146.238 39.7719 146.311 39.5967 146.311 39.4141ZM96.3834 46.848C96.3834 46.6601 96.3091 46.4799 96.1767 46.347C96.0444 46.2141 95.8649 46.1395 95.6777 46.1395C95.4906 46.1395 95.3111 46.2141 95.1788 46.347C95.0464 46.4799 94.9721 46.6601 94.9721 46.848C94.9721 47.0359 95.0464 47.2161 95.1788 47.349C95.3111 47.4818 95.4906 47.5565 95.6777 47.5565C95.8649 47.5565 96.0444 47.4818 96.1767 47.349C96.3091 47.2161 96.3834 47.0359 96.3834 46.848ZM142.653 46.8524C142.653 46.6657 142.579 46.4866 142.447 46.3545C142.316 46.2225 142.137 46.1483 141.951 46.1483C141.765 46.1483 141.587 46.2225 141.456 46.3545C141.324 46.4866 141.25 46.6657 141.25 46.8524C141.25 47.0391 141.324 47.2182 141.456 47.3503C141.587 47.4823 141.765 47.5565 141.951 47.5565C142.137 47.5565 142.316 47.4823 142.447 47.3503C142.579 47.2182 142.653 47.0391 142.653 46.8524Z" fill="#0042F7"/>
<path d="M188.309 29.3978V11.7799C188.309 11.7195 188.285 11.6717 188.236 11.6364C188.18 11.5952 188.083 11.5334 187.944 11.451C186.609 10.6674 186.601 8.49112 188.192 7.9636C188.349 7.91062 188.626 7.86354 189.023 7.82234C189.102 7.81351 189.159 7.77378 189.192 7.70315L191.125 3.81846C191.14 3.78767 191.147 3.75362 191.146 3.71909C191.146 3.68456 191.137 3.65054 191.12 3.61981C190.599 2.6354 190.525 1.53842 191.38 0.803417C192.259 0.0463448 193.455 0.317831 194.081 1.24044C194.184 1.39201 194.271 1.51046 194.343 1.5958C194.391 1.65466 194.453 1.68409 194.528 1.68409H199.828C199.91 1.68409 199.967 1.64583 199.999 1.56932C200.329 0.781345 201.076 0.300174 201.938 0.388462C202.951 0.489994 203.537 1.04768 203.697 2.06153C203.848 3.01504 203.431 3.8913 202.477 4.19589C202.452 4.20347 202.43 4.21873 202.415 4.2394C202.399 4.26007 202.391 4.28506 202.391 4.31067V29.9761C202.391 30.0291 202.406 30.0808 202.436 30.1249C202.465 30.1689 202.507 30.2031 202.556 30.2233C203.51 30.6184 203.862 31.4063 203.648 32.4261C203.449 33.3825 202.787 33.8806 201.661 33.9204C201.628 33.9217 201.596 33.9321 201.568 33.9503C201.54 33.9686 201.517 33.9941 201.503 34.0241L199.544 37.9618C199.513 38.025 199.517 38.0868 199.555 38.1472C200.033 38.8814 200.1 39.6069 199.757 40.3235C199.234 41.4204 198.23 41.4646 197.172 41.1313C197.1 41.1078 197.037 41.1203 196.981 41.1688C195.054 42.7845 193.087 44.4362 191.081 46.124C190.9 46.2741 190.799 46.3425 190.802 46.5985C190.806 48.1142 190.035 48.8109 188.489 48.6888C187.812 48.6358 187.347 48.279 187.095 47.6183C187.063 47.5359 187.003 47.4947 186.915 47.4947H163.114C163.032 47.4947 162.969 47.5293 162.925 47.5984C162.317 48.5711 161.5 48.9205 160.474 48.6468C159.948 48.507 159.604 48.2378 159.441 47.839C159.261 47.3976 159.21 46.9054 159.289 46.3624C159.31 46.2182 159.263 46.1012 159.149 46.0114L153.123 41.2108C153.07 41.1681 153.01 41.149 152.941 41.1534C152.857 41.1578 152.712 41.1835 152.505 41.2306C151.329 41.5014 150.54 41.1225 150.14 40.0939C149.795 39.2044 150.081 38.1825 150.989 37.7013C151.068 37.6586 151.14 37.6115 151.204 37.56C151.255 37.5188 151.281 37.4651 151.281 37.3989V11.7975C151.281 11.7122 151.243 11.6496 151.167 11.6099C150.377 11.1817 149.993 10.5541 150.015 9.72716C150.043 8.56175 150.707 7.79585 151.907 7.86207C151.967 7.86536 152.027 7.85084 152.08 7.82027C152.132 7.78971 152.174 7.74441 152.202 7.6899L154.123 3.82508C154.151 3.76943 154.163 3.70767 154.159 3.64605C154.155 3.58444 154.135 3.52514 154.101 3.47414C152.384 0.887291 156.449 -0.968971 157.386 1.54283C157.401 1.58367 157.429 1.61881 157.465 1.64364C157.501 1.66846 157.544 1.68179 157.588 1.68189H162.798C162.871 1.68189 162.933 1.6554 162.985 1.60243C163.097 1.48544 163.169 1.28238 163.253 1.17423C163.606 0.7166 164.048 0.453207 164.578 0.384048C165.972 0.203057 166.814 1.13671 166.733 2.55594C166.687 3.36672 166.313 3.90969 165.612 4.18486C165.587 4.19459 165.567 4.21136 165.552 4.233C165.538 4.25465 165.53 4.28017 165.53 4.30625V28.2015C165.53 28.3207 165.584 28.4038 165.693 28.4509C166.045 28.601 166.312 28.8239 166.495 29.1197C166.588 29.2698 166.653 29.3684 166.693 29.4154C166.737 29.4684 166.793 29.4949 166.862 29.4949H188.214C188.239 29.4949 188.263 29.4847 188.281 29.4665C188.299 29.4482 188.309 29.4235 188.309 29.3978ZM156.331 2.44589C156.352 2.36236 156.355 2.27518 156.339 2.18934C156.324 2.1035 156.29 2.02068 156.241 1.9456C156.192 1.87052 156.128 1.80465 156.052 1.75176C155.976 1.69887 155.891 1.65999 155.8 1.63734C155.71 1.61469 155.616 1.60872 155.525 1.61976C155.433 1.6308 155.345 1.65864 155.267 1.70169C155.188 1.74474 155.12 1.80215 155.066 1.87066C155.012 1.93916 154.974 2.01741 154.953 2.10095C154.933 2.18448 154.93 2.27165 154.945 2.35749C154.961 2.44333 154.994 2.52615 155.043 2.60123C155.093 2.67632 155.157 2.74218 155.233 2.79507C155.308 2.84796 155.394 2.88684 155.484 2.90949C155.575 2.93214 155.669 2.93812 155.76 2.92708C155.852 2.91604 155.939 2.8882 156.018 2.84515C156.096 2.8021 156.165 2.74468 156.218 2.67618C156.272 2.60767 156.311 2.52942 156.331 2.44589ZM165.559 2.27121C165.559 2.0915 165.488 1.91914 165.361 1.79207C165.235 1.66499 165.063 1.5936 164.884 1.5936C164.705 1.5936 164.533 1.66499 164.407 1.79207C164.28 1.91914 164.209 2.0915 164.209 2.27121C164.209 2.45092 164.28 2.62328 164.407 2.75035C164.533 2.87743 164.705 2.94882 164.884 2.94882C165.063 2.94882 165.235 2.87743 165.361 2.75035C165.488 2.62328 165.559 2.45092 165.559 2.27121ZM193.215 2.2668C193.215 2.08825 193.145 1.91702 193.019 1.79077C192.893 1.66452 192.723 1.5936 192.545 1.5936C192.367 1.5936 192.196 1.66452 192.071 1.79077C191.945 1.91702 191.874 2.08825 191.874 2.2668C191.874 2.3552 191.892 2.44274 191.925 2.52442C191.959 2.60609 192.008 2.68031 192.071 2.74282C192.196 2.86907 192.367 2.93999 192.545 2.93999C192.633 2.93999 192.72 2.92258 192.801 2.88875C192.883 2.85492 192.957 2.80533 193.019 2.74282C193.081 2.68031 193.131 2.60609 193.164 2.52442C193.198 2.44274 193.215 2.3552 193.215 2.2668ZM202.47 2.269C202.47 2.09339 202.401 1.92496 202.277 1.80078C202.153 1.6766 201.985 1.60684 201.811 1.60684C201.636 1.60684 201.468 1.6766 201.344 1.80078C201.221 1.92496 201.151 2.09339 201.151 2.269C201.151 2.44462 201.221 2.61304 201.344 2.73722C201.468 2.8614 201.636 2.93116 201.811 2.93116C201.985 2.93116 202.153 2.8614 202.277 2.73722C202.401 2.61304 202.47 2.44462 202.47 2.269ZM156.761 3.83171C156.588 3.96561 156.335 4.0561 156.001 4.10319C155.82 4.12821 155.634 4.1569 155.442 4.18927C155.37 4.20104 155.318 4.2393 155.286 4.30405L153.343 8.21301C153.328 8.24288 153.321 8.27607 153.322 8.3096C153.323 8.34312 153.333 8.37593 153.35 8.40504L153.67 8.96125C153.71 9.03041 153.769 9.06499 153.849 9.06499H159.127C159.198 9.06499 159.252 9.03262 159.287 8.96788C159.476 8.60884 159.7 8.32926 159.96 8.12914C160.133 7.99523 160.386 7.90474 160.72 7.85765C160.901 7.83264 161.087 7.80394 161.279 7.77157C161.351 7.7598 161.403 7.72154 161.435 7.6568L163.378 3.74783C163.393 3.71797 163.4 3.68477 163.399 3.65125C163.398 3.61772 163.388 3.58492 163.371 3.5558L163.051 2.99959C163.011 2.93043 162.952 2.89585 162.872 2.89585H157.594C157.523 2.89585 157.469 2.92822 157.434 2.99297C157.245 3.35201 157.021 3.63159 156.761 3.83171ZM198.179 7.82454C198.231 7.82649 198.282 7.81335 198.326 7.78671C198.371 7.76008 198.407 7.72109 198.43 7.67445L200.25 4.01049C200.307 3.89451 200.335 3.76569 200.329 3.63622C200.323 3.50674 200.284 3.3809 200.216 3.27062C200.149 3.16033 200.054 3.06924 199.941 3.00597C199.829 2.94271 199.702 2.90936 199.573 2.90909H194.468C194.386 2.90909 194.327 2.94588 194.29 3.01945C193.915 3.7596 193.303 4.14366 192.455 4.17162C192.374 4.17456 192.316 4.21208 192.281 4.28418L190.379 8.11148C190.329 8.21308 190.305 8.32597 190.31 8.43944C190.315 8.55291 190.349 8.66319 190.409 8.75982C190.468 8.85644 190.551 8.93621 190.65 8.99156C190.749 9.0469 190.86 9.07597 190.973 9.07603H196.139C196.22 9.07603 196.275 9.03851 196.306 8.96346C196.63 8.17034 197.254 7.7907 198.179 7.82454ZM161.734 19.9752C161.797 23.9688 161.808 28.8894 161.769 34.737C161.769 34.8283 161.789 34.8327 161.828 34.7503L163.369 31.6536C163.403 31.5829 163.4 31.5145 163.36 31.4483C162.566 30.1004 162.822 29.063 164.128 28.3361C164.194 28.2993 164.227 28.2434 164.227 28.1684C164.266 24.3793 164.273 21.6475 164.246 19.973C164.183 15.9794 164.172 11.0588 164.211 5.21121C164.211 5.11998 164.191 5.11556 164.152 5.19797L162.611 8.29468C162.577 8.36531 162.58 8.43373 162.62 8.49995C163.414 9.84782 163.158 10.8852 161.852 11.6121C161.787 11.6489 161.754 11.7048 161.754 11.7799C161.714 15.5689 161.707 18.3007 161.734 19.9752ZM199.54 8.26378C199.534 8.27447 199.531 8.28667 199.531 8.29909C199.532 8.31151 199.535 8.32371 199.542 8.33441C200.263 9.4358 200.157 11.0404 198.816 11.5856C198.784 11.5995 198.757 11.6223 198.738 11.6513C198.719 11.6804 198.709 11.7143 198.709 11.749V36.3814C198.709 36.5845 198.755 36.5955 198.847 36.4145L200.351 33.4877C200.366 33.4593 200.373 33.427 200.37 33.3946C200.368 33.3622 200.357 33.331 200.338 33.3045C199.575 32.2826 199.764 30.6956 201.103 30.2056C201.183 30.1762 201.224 30.1173 201.224 30.029V5.22666C201.224 4.98975 201.172 4.97725 201.067 5.18914L199.54 8.26378ZM152.369 10.2578C152.43 10.1967 152.476 10.1231 152.506 10.0411C152.537 9.9591 152.55 9.87036 152.545 9.77994C152.54 9.68952 152.518 9.59919 152.479 9.51411C152.441 9.42903 152.386 9.35087 152.319 9.28408C152.252 9.21729 152.174 9.16319 152.089 9.12486C152.004 9.08653 151.914 9.06473 151.824 9.06069C151.734 9.05666 151.645 9.07047 151.564 9.10135C151.482 9.13223 151.409 9.17956 151.349 9.24064C151.289 9.30173 151.242 9.37537 151.212 9.45736C151.182 9.53936 151.168 9.62809 151.173 9.71851C151.178 9.80893 151.2 9.89926 151.239 9.98434C151.278 10.0694 151.332 10.1476 151.399 10.2144C151.466 10.2812 151.544 10.3353 151.629 10.3736C151.714 10.4119 151.804 10.4337 151.894 10.4378C151.985 10.4418 152.073 10.428 152.154 10.3971C152.236 10.3662 152.309 10.3189 152.369 10.2578ZM161.662 10.1918C161.771 10.055 161.817 9.87696 161.79 9.69683C161.762 9.51669 161.664 9.34923 161.517 9.23126C161.37 9.1133 161.186 9.05451 161.005 9.06782C160.824 9.08113 160.661 9.16546 160.552 9.30225C160.444 9.43904 160.398 9.61708 160.425 9.79721C160.452 9.97735 160.55 10.1448 160.697 10.2628C160.844 10.3807 161.029 10.4395 161.21 10.4262C161.391 10.4129 161.553 10.3286 161.662 10.1918ZM189.542 9.7404C189.542 9.56069 189.471 9.38833 189.344 9.26125C189.218 9.13418 189.046 9.06279 188.867 9.06279C188.688 9.06279 188.516 9.13418 188.39 9.26125C188.263 9.38833 188.192 9.56069 188.192 9.7404C188.192 9.82938 188.21 9.9175 188.244 9.99971C188.277 10.0819 188.327 10.1566 188.39 10.2195C188.453 10.2825 188.527 10.3324 188.609 10.3664C188.691 10.4005 188.778 10.418 188.867 10.418C188.956 10.418 189.043 10.4005 189.125 10.3664C189.207 10.3324 189.282 10.2825 189.344 10.2195C189.407 10.1566 189.457 10.0819 189.491 9.99971C189.524 9.9175 189.542 9.82938 189.542 9.7404ZM198.764 9.73598C198.764 9.55159 198.691 9.37474 198.561 9.24435C198.431 9.11397 198.255 9.04071 198.071 9.04071C197.888 9.04071 197.711 9.11397 197.582 9.24435C197.452 9.37474 197.379 9.55159 197.379 9.73598C197.379 9.92038 197.452 10.0972 197.582 10.2276C197.711 10.358 197.888 10.4313 198.071 10.4313C198.255 10.4313 198.431 10.358 198.561 10.2276C198.691 10.0972 198.764 9.92038 198.764 9.73598ZM165.579 30.0908C165.579 29.9047 165.505 29.7262 165.374 29.5945C165.243 29.4629 165.065 29.389 164.879 29.389C164.694 29.389 164.516 29.4629 164.385 29.5945C164.254 29.7262 164.18 29.9047 164.18 30.0908C164.18 30.277 164.254 30.4555 164.385 30.5872C164.516 30.7188 164.694 30.7927 164.879 30.7927C165.065 30.7927 165.243 30.7188 165.374 30.5872C165.505 30.4555 165.579 30.277 165.579 30.0908ZM166.664 30.8325C166.267 31.6536 165.776 32.0862 164.763 32.042C164.731 32.0399 164.699 32.0476 164.672 32.0641C164.644 32.0806 164.621 32.1052 164.607 32.1347L162.716 35.9355C162.664 36.0416 162.639 36.1595 162.644 36.2779C162.649 36.3964 162.685 36.5116 162.747 36.6124C162.809 36.7133 162.896 36.7965 162.999 36.8542C163.102 36.9119 163.218 36.9421 163.336 36.942H186.889C186.965 36.942 187.021 36.9082 187.056 36.8405C187.3 36.3667 187.679 36.0393 188.192 35.8583C188.271 35.8303 188.311 35.7744 188.311 35.6905V30.7949C188.311 30.775 188.303 30.756 188.288 30.7419C188.274 30.7278 188.254 30.7199 188.234 30.7199H166.843C166.76 30.7199 166.701 30.7574 166.664 30.8325ZM202.485 31.9802C202.485 31.7987 202.414 31.6247 202.286 31.4964C202.158 31.3681 201.985 31.296 201.804 31.296C201.623 31.296 201.45 31.3681 201.322 31.4964C201.194 31.6247 201.122 31.7987 201.122 31.9802C201.122 32.1617 201.194 32.3357 201.322 32.464C201.45 32.5924 201.623 32.6645 201.804 32.6645C201.985 32.6645 202.158 32.5924 202.286 32.464C202.414 32.3357 202.485 32.1617 202.485 31.9802ZM161.83 37.5667C161.83 37.3799 161.757 37.2008 161.625 37.0688C161.494 36.9367 161.315 36.8626 161.129 36.8626C160.943 36.8626 160.765 36.9367 160.633 37.0688C160.502 37.2008 160.428 37.3799 160.428 37.5667C160.428 37.7534 160.502 37.9325 160.633 38.0645C160.765 38.1966 160.943 38.2708 161.129 38.2708C161.315 38.2708 161.494 38.1966 161.625 38.0645C161.757 37.9325 161.83 37.7534 161.83 37.5667ZM189.562 37.5622C189.562 37.3796 189.489 37.2044 189.361 37.0753C189.232 36.9462 189.058 36.8736 188.876 36.8736C188.694 36.8736 188.52 36.9462 188.391 37.0753C188.262 37.2044 188.19 37.3796 188.19 37.5622C188.19 37.7449 188.262 37.92 188.391 38.0492C188.52 38.1783 188.694 38.2509 188.876 38.2509C189.058 38.2509 189.232 38.1783 189.361 38.0492C189.489 37.92 189.562 37.7449 189.562 37.5622ZM152.556 39.3611C152.556 39.1785 152.484 39.0033 152.355 38.8742C152.226 38.745 152.052 38.6725 151.87 38.6725C151.688 38.6725 151.514 38.745 151.385 38.8742C151.256 39.0033 151.184 39.1785 151.184 39.3611C151.184 39.5438 151.256 39.7189 151.385 39.8481C151.514 39.9772 151.688 40.0498 151.87 40.0498C152.052 40.0498 152.226 39.9772 152.355 39.8481C152.484 39.7189 152.556 39.5438 152.556 39.3611ZM198.585 39.9021C198.646 39.8417 198.694 39.7686 198.725 39.687C198.756 39.6054 198.77 39.5169 198.767 39.4266C198.763 39.3363 198.742 39.2459 198.704 39.1606C198.667 39.0753 198.613 38.9968 198.547 38.9295C198.414 38.7936 198.237 38.7118 198.055 38.7021C197.874 38.6923 197.702 38.7554 197.579 38.8775C197.518 38.9379 197.471 39.011 197.439 39.0926C197.408 39.1742 197.394 39.2627 197.398 39.353C197.401 39.4433 197.423 39.5337 197.46 39.619C197.498 39.7043 197.551 39.7828 197.617 39.8501C197.751 39.986 197.928 40.0678 198.109 40.0776C198.291 40.0873 198.462 40.0242 198.585 39.9021ZM161.835 46.8546C161.835 46.763 161.817 46.6723 161.782 46.5877C161.747 46.5031 161.696 46.4262 161.631 46.3614C161.567 46.2966 161.49 46.2453 161.406 46.2102C161.322 46.1751 161.231 46.1571 161.14 46.1571C160.956 46.1571 160.779 46.2306 160.649 46.3614C160.519 46.4922 160.446 46.6696 160.446 46.8546C160.446 47.0396 160.519 47.217 160.649 47.3478C160.779 47.4786 160.956 47.5521 161.14 47.5521C161.231 47.5521 161.322 47.534 161.406 47.499C161.49 47.4639 161.567 47.4125 161.631 47.3478C161.696 47.283 161.747 47.2061 161.782 47.1215C161.817 47.0369 161.835 46.9462 161.835 46.8546ZM189.214 47.465C189.361 47.3775 189.464 47.2301 189.501 47.0554C189.539 46.8806 189.506 46.6928 189.412 46.5332C189.365 46.4542 189.305 46.3845 189.234 46.3281C189.163 46.2717 189.083 46.2297 188.998 46.2045C188.914 46.1793 188.827 46.1714 188.742 46.1812C188.656 46.1911 188.575 46.2184 188.503 46.2618C188.356 46.3494 188.252 46.4967 188.215 46.6715C188.178 46.8462 188.21 47.034 188.304 47.1936C188.351 47.2726 188.412 47.3423 188.483 47.3987C188.554 47.4551 188.634 47.4971 188.718 47.5223C188.803 47.5475 188.89 47.5554 188.975 47.5456C189.06 47.5358 189.141 47.5084 189.214 47.465Z" fill="#0042F7"/>
</g>
<defs>
<clipPath id="clip0_5_42">
<rect width="204" height="49" fill="white"/>
</clipPath>
</defs>
</svg>
