<svg width="928" height="151" viewBox="0 0 928 151" fill="none" xmlns="http://www.w3.org/2000/svg">
<path d="M229.63 68.0588L232.61 70.0858C232.863 70.2581 233.157 70.2989 233.49 70.2082C233.95 70.0812 234.673 69.9611 235.66 69.8477C240.97 69.2628 244.85 71.691 245.49 75.1531C246.077 78.2955 244.29 80.4268 240.13 81.5468C239.757 81.6466 239.57 81.8325 239.57 82.1046V104.068C239.57 104.217 239.631 104.363 239.746 104.49C239.86 104.618 240.024 104.721 240.22 104.789C244.87 106.36 247.33 109.999 244.46 113.094C242.4 115.311 239.93 115.461 236.42 115.848C236.033 115.889 235.76 116.016 235.6 116.229L226.7 128.377C226.487 128.667 226.51 128.944 226.77 129.207C228.78 131.282 229.34 134.166 227.27 136.26C225.01 138.55 221.567 139.242 216.94 138.335C216.607 138.267 216.317 138.317 216.07 138.485L211.74 141.43C211.52 141.584 211.44 141.765 211.5 141.974C211.593 142.282 211.713 142.706 211.86 143.246C213.39 148.762 206.42 150.918 199.64 149.83C198.007 149.572 196.41 148.581 194.85 146.858C194.55 146.527 194.113 146.361 193.54 146.361H18.77C18.5729 146.361 18.3798 146.396 18.2109 146.463C18.042 146.53 17.9035 146.626 17.81 146.742C15.4966 149.563 12.0833 150.63 7.56998 149.946C-0.800016 148.687 -0.410017 141.355 6.36998 139.022C6.58078 138.95 6.75794 138.841 6.88159 138.706C7.00524 138.572 7.07048 138.417 7.06998 138.26V36.2468C7.06975 36.1533 7.0302 36.0615 6.9559 35.9821C6.8816 35.9027 6.77556 35.8388 6.64998 35.7979C2.56332 34.4602 0.829984 32.1589 1.44998 28.8941C2.04998 25.7063 5.02665 24.1441 10.38 24.2076C10.5298 24.2095 10.6776 24.1825 10.8067 24.1296C10.9357 24.0767 11.0408 24 11.11 23.9083L20.13 11.6039C20.1971 11.513 20.2278 11.4112 20.219 11.3087C20.2103 11.2061 20.1623 11.1063 20.08 11.0189C18.77 9.67217 17.82 8.14176 18.15 6.42091C18.6766 3.69112 20.8133 2.01334 24.56 1.38757C28.98 0.652979 33.05 1.69365 34.82 4.63203C34.9174 4.79483 35.0846 4.93419 35.3001 5.03232C35.5156 5.13045 35.7697 5.1829 36.03 5.18298H211.14C211.274 5.18317 211.406 5.1577 211.519 5.10953C211.633 5.06136 211.723 4.99248 211.78 4.91091C212.853 3.27394 214.597 2.15391 217.01 1.55082C224.92 -0.414904 230.02 4.40077 228.15 9.30487C228.03 9.62682 228.14 9.90343 228.48 10.1347L232.76 13.0459C232.927 13.1592 233.127 13.1978 233.36 13.1615C234.527 12.9665 235.287 12.8577 235.64 12.835C245.42 12.2228 248.91 19.494 241.97 23.6159C241.083 24.1419 240.41 24.5636 239.95 24.881C239.697 25.0533 239.57 25.2596 239.57 25.5V46.8984C239.57 47.0368 239.628 47.1728 239.737 47.2907C239.847 47.4086 240.004 47.5037 240.19 47.565C243.283 48.5989 245.047 50.1316 245.48 52.163C246.19 55.4551 242.8 58.2302 238.09 58.6928C237.117 58.788 236.48 58.8628 236.18 58.9172C235.86 58.9807 235.623 59.1145 235.47 59.3185L229.49 67.4739C229.33 67.6915 229.377 67.8865 229.63 68.0588ZM30.0647 7.50076C30.1534 7.24335 30.16 6.97548 30.084 6.71245C30.0079 6.44942 29.8508 6.19637 29.6216 5.96777C29.3923 5.73917 29.0954 5.53948 28.7479 5.3801C28.4003 5.22073 28.0089 5.10479 27.5959 5.03892C27.1829 4.97303 26.7565 4.95849 26.341 4.99613C25.9255 5.03377 25.5291 5.12285 25.1743 5.25827C24.8195 5.3937 24.5134 5.57283 24.2733 5.78544C24.0333 5.99804 23.864 6.23995 23.7753 6.49736C23.6865 6.75477 23.68 7.02264 23.756 7.28567C23.832 7.5487 23.9891 7.80175 24.2184 8.03035C24.4476 8.25895 24.7445 8.45864 25.0921 8.61802C25.4397 8.77739 25.8311 8.89332 26.2441 8.9592C26.657 9.02509 27.0834 9.03963 27.4989 9.00199C27.9144 8.96435 28.3109 8.87527 28.6657 8.73985C29.0204 8.60442 29.3266 8.42529 29.5666 8.21268C29.8067 8.00008 29.9759 7.75817 30.0647 7.50076ZM223.35 7.03987C223.35 6.48065 223.023 5.94433 222.442 5.54889C221.861 5.15346 221.072 4.93131 220.25 4.93131C219.428 4.93131 218.639 5.15346 218.058 5.54889C217.477 5.94433 217.15 6.48065 217.15 7.03987C217.15 7.5991 217.477 8.13542 218.058 8.53085C218.639 8.92628 219.428 9.14843 220.25 9.14843C221.072 9.14843 221.861 8.92628 222.442 8.53085C223.023 8.13542 223.35 7.5991 223.35 7.03987ZM114.75 27.9486C136.65 28.3885 159.827 28.4225 184.28 28.0506C186.867 28.0098 190.203 27.9486 194.29 27.867C194.456 27.8626 194.615 27.8278 194.751 27.7665C194.888 27.7052 194.994 27.6199 195.06 27.5201C196.647 25.1712 199.55 24.0217 203.77 24.0716C203.941 24.0739 204.109 24.0425 204.256 23.9811C204.403 23.9197 204.522 23.8308 204.6 23.7247L213.08 12.1616C213.332 11.8191 213.45 11.4383 213.423 11.0559C213.396 10.6734 213.226 10.302 212.928 9.9771C212.63 9.65224 212.214 9.38482 211.721 9.20044C211.228 9.01605 210.673 8.92086 210.11 8.92397C190.863 9.06454 170.577 9.12349 149.25 9.10082C130.71 9.07814 119.38 9.026 115.26 8.94438C93.36 8.50453 70.1833 8.47052 45.73 8.84235C43.1433 8.88316 39.8067 8.94438 35.72 9.026C35.5544 9.03035 35.3945 9.06514 35.2585 9.12644C35.1224 9.18774 35.0156 9.2731 34.95 9.37289C33.3633 11.7218 30.46 12.8713 26.24 12.8214C26.0693 12.8191 25.9006 12.8505 25.7537 12.9119C25.6067 12.9733 25.4875 13.0622 25.41 13.1683L16.93 24.7314C16.6784 25.0739 16.5603 25.4546 16.5869 25.8371C16.6136 26.2196 16.784 26.591 17.082 26.9159C17.38 27.2407 17.7956 27.5082 18.289 27.6925C18.7824 27.8769 19.3371 27.9721 19.9 27.969C39.1466 27.8284 59.4333 27.7695 80.76 27.7922C99.3 27.8148 110.63 27.867 114.75 27.9486ZM212.72 21.9222C211.373 23.6861 210.497 24.9717 210.09 25.7788C209.97 26.0101 210.01 26.2255 210.21 26.425C212.157 28.3522 212.593 30.4063 211.52 32.5874C211.457 32.7185 211.448 32.8587 211.494 32.993C211.54 33.1273 211.639 33.2505 211.78 33.3492L215.75 36.0428C215.91 36.1516 216.1 36.1924 216.32 36.1652L220.79 35.5598C221.11 35.5145 221.34 35.3943 221.48 35.1993C224.74 30.6965 226.793 27.8897 227.64 26.7787C228.987 25.0148 229.863 23.7292 230.27 22.9221C230.39 22.6908 230.35 22.4754 230.15 22.2759C228.203 20.3487 227.767 18.2946 228.84 16.1135C228.903 15.9825 228.912 15.8422 228.866 15.7079C228.82 15.5736 228.721 15.4504 228.58 15.3517L224.61 12.6582C224.45 12.5493 224.26 12.5085 224.04 12.5357L219.57 13.1411C219.25 13.1864 219.02 13.3066 218.88 13.5016C215.62 18.0044 213.567 20.8113 212.72 21.9222ZM239.75 18.4397C239.75 17.9075 239.439 17.3972 238.886 17.0209C238.333 16.6446 237.582 16.4332 236.8 16.4332C236.018 16.4332 235.267 16.6446 234.714 17.0209C234.161 17.3972 233.85 17.9075 233.85 18.4397C233.85 18.9719 234.161 19.4822 234.714 19.8585C235.267 20.2348 236.018 20.4462 236.8 20.4462C237.582 20.4462 238.333 20.2348 238.886 19.8585C239.439 19.4822 239.75 18.9719 239.75 18.4397ZM223.07 66.0047C223.07 66.6803 223.3 66.7166 223.76 66.1135L230.31 57.5092C230.437 57.346 230.45 57.1805 230.35 57.0127C230.237 56.8313 229.937 56.4164 229.45 55.768C226.52 51.8978 229.13 49.4967 233.85 47.3746C234.163 47.234 234.32 47.0367 234.32 46.7828V27.1868C234.32 26.6336 234.137 26.6041 233.77 27.0984C231.837 29.6876 229.723 32.5716 227.43 35.7503C227.403 35.7866 227.247 35.9589 226.96 36.2672C226.56 36.6889 226.537 37.1242 226.89 37.5732C230.097 41.6996 228.977 44.9168 223.53 47.2249C223.223 47.3564 223.07 47.5446 223.07 47.7895V66.0047ZM12.1498 31.5421C12.6771 31.1466 12.9268 30.6093 12.844 30.0486C12.7613 29.4878 12.3527 28.9495 11.7083 28.5521C11.0638 28.1546 10.2363 27.9306 9.40777 27.9293C8.57922 27.9279 7.8175 28.1494 7.29018 28.545C6.76286 28.9406 6.51312 29.4778 6.59592 30.0385C6.67872 30.5993 7.08726 31.1376 7.73168 31.5351C8.37612 31.9325 9.20364 32.1565 10.0322 32.1579C10.8607 32.1592 11.6225 31.9377 12.1498 31.5421ZM205.321 31.619C205.606 31.4364 205.831 31.2146 205.984 30.9661C206.136 30.7176 206.213 30.4473 206.21 30.1706C206.207 29.894 206.124 29.6164 205.966 29.3538C205.808 29.0911 205.578 28.8485 205.289 28.6399C205 28.4312 204.657 28.2605 204.281 28.1376C203.905 28.0146 203.503 27.9419 203.097 27.9234C202.691 27.9049 202.29 27.9411 201.916 28.0299C201.542 28.1187 201.203 28.2584 200.918 28.4409C200.634 28.6235 200.409 28.8453 200.256 29.0939C200.104 29.3424 200.027 29.6127 200.03 29.8893C200.033 30.1659 200.116 30.4435 200.274 30.7061C200.432 30.9688 200.662 31.2114 200.951 31.42C201.24 31.6287 201.583 31.7994 201.959 31.9223C202.335 32.0453 202.737 32.1181 203.143 32.1365C203.549 32.155 203.95 32.1188 204.324 32.03C204.698 31.9412 205.037 31.8016 205.321 31.619ZM223.4 41.3958C223.4 40.8275 223.068 40.2826 222.477 39.8807C221.887 39.4789 221.085 39.2532 220.25 39.2532C219.415 39.2532 218.613 39.4789 218.023 39.8807C217.432 40.2826 217.1 40.8275 217.1 41.3958C217.1 41.964 217.432 42.509 218.023 42.9108C218.613 43.3126 219.415 43.5383 220.25 43.5383C221.085 43.5383 221.887 43.3126 222.477 42.9108C223.068 42.509 223.4 41.964 223.4 41.3958ZM239.746 53.95C240.111 53.4914 240.165 52.9429 239.896 52.4251C239.628 51.9072 239.059 51.4626 238.315 51.1889C237.946 51.0533 237.546 50.9639 237.136 50.9256C236.727 50.8872 236.316 50.9008 235.928 50.9656C235.54 51.0303 235.181 51.1449 234.874 51.3029C234.566 51.4608 234.314 51.659 234.134 51.8861C233.769 52.3447 233.715 52.8932 233.984 53.411C234.252 53.9288 234.821 54.3735 235.565 54.6472C235.934 54.7827 236.334 54.8722 236.744 54.9105C237.153 54.9488 237.564 54.9352 237.952 54.8705C238.34 54.8057 238.699 54.6911 239.006 54.5332C239.314 54.3752 239.566 54.1771 239.746 53.95ZM55.09 58.5635C55.09 57.9845 54.7518 57.4291 54.1498 57.0196C53.5478 56.6102 52.7313 56.3801 51.88 56.3801C51.0286 56.3801 50.2122 56.6102 49.6102 57.0196C49.0082 57.4291 48.67 57.9845 48.67 58.5635C48.67 58.8502 48.753 59.1342 48.9143 59.3991C49.0756 59.664 49.3121 59.9047 49.6102 60.1074C49.9082 60.3101 50.2621 60.471 50.6516 60.5807C51.041 60.6904 51.4584 60.7469 51.88 60.7469C52.3015 60.7469 52.7189 60.6904 53.1084 60.5807C53.4979 60.471 53.8517 60.3101 54.1498 60.1074C54.4479 59.9047 54.6843 59.664 54.8456 59.3991C55.007 59.1342 55.09 58.8502 55.09 58.5635ZM181.45 58.5635C181.45 57.9863 181.113 57.4326 180.513 57.0244C179.913 56.6163 179.099 56.3869 178.25 56.3869C177.401 56.3869 176.587 56.6163 175.987 57.0244C175.387 57.4326 175.05 57.9863 175.05 58.5635C175.05 59.1408 175.387 59.6944 175.987 60.1026C176.587 60.5108 177.401 60.7401 178.25 60.7401C179.099 60.7401 179.913 60.5108 180.513 60.1026C181.113 59.6944 181.45 59.1408 181.45 58.5635ZM60.09 70.5415C60.3033 70.7909 60.62 70.9156 61.04 70.9156H169.07C169.443 70.9156 169.697 70.7954 169.83 70.5551C170.757 68.8229 172.493 67.6802 175.04 67.127C175.194 67.0937 175.329 67.0282 175.424 66.9402C175.519 66.8521 175.571 66.7459 175.57 66.6373V64.5967C175.57 64.3337 175.383 64.1614 175.01 64.0798C172.417 63.5311 170.67 62.4632 169.77 60.8761C169.705 60.7617 169.592 60.6634 169.446 60.5942C169.299 60.5249 169.126 60.488 168.95 60.4884H64.99C64.8186 60.4882 64.651 60.5199 64.5061 60.58C64.3612 60.6401 64.2448 60.7262 64.17 60.8285L58.64 68.3785C58.5844 68.4538 58.5572 68.5368 58.5607 68.62C58.5642 68.7032 58.5983 68.7839 58.66 68.8547L60.09 70.5415ZM54.92 72.8949C54.92 72.3411 54.5965 71.81 54.0208 71.4184C53.4451 71.0268 52.6642 70.8068 51.85 70.8068C51.0358 70.8068 50.2549 71.0268 49.6792 71.4184C49.1034 71.81 48.78 72.3411 48.78 72.8949C48.78 73.4487 49.1034 73.9799 49.6792 74.3715C50.2549 74.7631 51.0358 74.9831 51.85 74.9831C52.6642 74.9831 53.4451 74.7631 54.0208 74.3715C54.5965 73.9799 54.92 73.4487 54.92 72.8949ZM181.32 72.8881C181.32 72.3379 180.999 71.8102 180.427 71.4212C179.855 71.0321 179.079 70.8136 178.27 70.8136C177.461 70.8136 176.685 71.0321 176.113 71.4212C175.541 71.8102 175.22 72.3379 175.22 72.8881C175.22 73.4383 175.541 73.966 176.113 74.355C176.685 74.7441 177.461 74.9627 178.27 74.9627C179.079 74.9627 179.855 74.7441 180.427 74.355C180.999 73.966 181.32 73.4383 181.32 72.8881ZM228.07 73.3302C228.203 73.4753 228.363 73.5547 228.55 73.5683C228.594 73.5717 228.639 73.5674 228.68 73.5557C228.721 73.544 228.757 73.5254 228.783 73.5019C228.81 73.4783 228.826 73.4506 228.831 73.4216C228.835 73.3926 228.828 73.3634 228.81 73.337C228.517 72.8609 228.12 72.5027 227.62 72.2624C227.173 72.0447 227.067 72.1059 227.3 72.446C227.51 72.7385 227.79 73.031 228.07 73.3302ZM222.96 77.0309C223.414 76.5931 223.567 76.0377 223.386 75.487C223.204 74.9362 222.703 74.4352 221.992 74.0941C221.281 73.7531 220.419 73.5999 219.595 73.6683C218.772 73.7367 218.054 74.0211 217.6 74.4589C217.146 74.8967 216.993 75.452 217.174 76.0028C217.356 76.5535 217.857 77.0545 218.568 77.3956C219.279 77.7367 220.141 77.8898 220.965 77.8215C221.788 77.7531 222.506 77.4687 222.96 77.0309ZM239.822 76.5802C239.976 76.3426 240.056 76.0849 240.055 75.822C240.054 75.5591 239.973 75.2961 239.817 75.048C239.661 74.7999 239.432 74.5715 239.144 74.3759C238.856 74.1803 238.515 74.0213 238.139 73.908C237.763 73.7948 237.361 73.7294 236.954 73.7157C236.548 73.702 236.145 73.7402 235.77 73.8282C235.395 73.9161 235.054 74.0521 234.767 74.2283C234.481 74.4045 234.253 74.6175 234.098 74.8551C233.944 75.0928 233.864 75.3504 233.865 75.6133C233.866 75.8762 233.947 76.1392 234.103 76.3873C234.259 76.6355 234.488 76.8639 234.776 77.0595C235.064 77.255 235.405 77.414 235.781 77.5273C236.157 77.6406 236.559 77.7059 236.966 77.7196C237.372 77.7333 237.775 77.6951 238.15 77.6072C238.525 77.5192 238.866 77.3833 239.153 77.2071C239.439 77.0309 239.667 76.8178 239.822 76.5802ZM220.49 92.6405C221.03 92.6995 221.423 92.5635 221.67 92.2324L230.44 80.2817C230.527 80.1592 230.52 80.0413 230.42 79.928L228.52 77.6902C228.507 77.6746 228.488 77.662 228.465 77.6539C228.442 77.6458 228.416 77.6426 228.39 77.6448C228.364 77.647 228.34 77.6545 228.32 77.6662C228.3 77.6779 228.286 77.6934 228.28 77.7106C226.59 81.4992 221.89 81.8937 216.91 81.3836C216.739 81.3667 216.565 81.3763 216.402 81.4117C216.239 81.4471 216.091 81.5073 215.97 81.5876L211.69 84.5056C211.41 84.696 211.34 84.9182 211.48 85.1722C212.247 86.5733 212.24 88.0267 211.46 89.5321C211.327 89.7815 211.397 89.9992 211.67 90.1851L215.52 92.8038C215.8 92.9897 216.123 93.0373 216.49 92.9466C217.843 92.602 219.177 92.5 220.49 92.6405ZM226.74 102.87C226.387 103.233 225.293 103.775 223.46 104.496C223.2 104.6 223.07 104.755 223.07 104.959V123.949C223.065 123.983 223.078 124.017 223.107 124.044C223.137 124.071 223.18 124.09 223.229 124.097C223.277 124.104 223.328 124.098 223.371 124.081C223.414 124.063 223.445 124.036 223.46 124.004C225.46 120.784 227.77 117.646 230.39 114.59C230.497 114.468 230.467 114.236 230.3 113.896C230.18 113.66 229.863 113.207 229.35 112.536C227.263 109.792 228.113 107.455 231.9 105.523C232.387 105.278 233.043 104.974 233.87 104.612C234.004 104.554 234.114 104.474 234.189 104.38C234.265 104.286 234.303 104.18 234.3 104.074L233.95 85.2538C233.943 84.6326 233.737 84.5986 233.33 85.1518L226.82 94.0213C226.64 94.2662 226.64 94.5088 226.82 94.7491C228.9 97.5515 229.42 100.109 226.74 102.87ZM206.15 87.1719C206.15 86.6361 205.837 86.1223 205.28 85.7434C204.723 85.3646 203.968 85.1518 203.18 85.1518C202.392 85.1518 201.637 85.3646 201.08 85.7434C200.523 86.1223 200.21 86.6361 200.21 87.1719C200.21 87.7077 200.523 88.2215 201.08 88.6003C201.637 88.9792 202.392 89.192 203.18 89.192C203.968 89.192 204.723 88.9792 205.28 88.6003C205.837 88.2215 206.15 87.7077 206.15 87.1719ZM223.4 98.6669C223.4 98.1059 223.072 97.5679 222.489 97.1712C221.906 96.7745 221.115 96.5516 220.29 96.5516C219.465 96.5516 218.674 96.7745 218.091 97.1712C217.508 97.5679 217.18 98.1059 217.18 98.6669C217.18 99.228 217.508 99.766 218.091 100.163C218.674 100.559 219.465 100.782 220.29 100.782C221.115 100.782 221.906 100.559 222.489 100.163C223.072 99.766 223.4 99.228 223.4 98.6669ZM55.09 101.551C55.09 101.264 55.007 100.98 54.8456 100.715C54.6843 100.45 54.4479 100.21 54.1498 100.007C53.8517 99.8043 53.4979 99.6435 53.1084 99.5337C52.7189 99.424 52.3015 99.3675 51.88 99.3675C51.4584 99.3675 51.041 99.424 50.6516 99.5337C50.2621 99.6435 49.9082 99.8043 49.6102 100.007C49.3121 100.21 49.0756 100.45 48.9143 100.715C48.753 100.98 48.67 101.264 48.67 101.551C48.67 102.13 49.0082 102.685 49.6102 103.095C50.2122 103.504 51.0286 103.734 51.88 103.734C52.7313 103.734 53.5478 103.504 54.1498 103.095C54.7518 102.685 55.09 102.13 55.09 101.551ZM181.46 101.551C181.46 100.974 181.123 100.42 180.523 100.012C179.923 99.6037 179.109 99.3743 178.26 99.3743C177.411 99.3743 176.597 99.6037 175.997 100.012C175.397 100.42 175.06 100.974 175.06 101.551C175.06 102.128 175.397 102.682 175.997 103.09C176.597 103.498 177.411 103.727 178.26 103.727C179.109 103.727 179.923 103.498 180.523 103.09C181.123 102.682 181.46 102.128 181.46 101.551ZM170.33 103.857C170.255 103.706 170.112 103.575 169.922 103.482C169.732 103.39 169.504 103.34 169.27 103.34H65.04C64.8747 103.34 64.713 103.371 64.5732 103.43C64.4335 103.489 64.3215 103.573 64.25 103.673L58.97 110.869C58.7402 111.183 58.6321 111.532 58.6558 111.883C58.6796 112.233 58.8346 112.574 59.1059 112.872C59.3773 113.17 59.7562 113.417 60.2066 113.588C60.6571 113.758 61.1642 113.848 61.68 113.849H168.8C169.127 113.849 169.403 113.767 169.63 113.604C170.11 113.273 170.497 112.88 170.79 112.427C171.15 111.869 172.57 111.234 175.05 110.522C175.39 110.427 175.56 110.253 175.56 109.999V107.863C175.56 107.65 175.42 107.498 175.14 107.407C172.72 106.636 171.117 105.453 170.33 103.857ZM239.804 111.043C240.137 110.567 240.154 110.014 239.854 109.504C239.554 108.995 238.96 108.572 238.202 108.327C237.445 108.083 236.587 108.037 235.817 108.201C235.047 108.364 234.428 108.723 234.095 109.199C233.763 109.675 233.745 110.229 234.046 110.738C234.346 111.247 234.94 111.671 235.697 111.915C236.455 112.16 237.313 112.205 238.083 112.042C238.853 111.878 239.472 111.519 239.804 111.043ZM55.05 115.767C55.05 115.191 54.7139 114.639 54.1157 114.232C53.5174 113.826 52.706 113.597 51.86 113.597C51.0139 113.597 50.2026 113.826 49.6043 114.232C49.0061 114.639 48.67 115.191 48.67 115.767C48.67 116.342 49.0061 116.894 49.6043 117.301C50.2026 117.708 51.0139 117.936 51.86 117.936C52.706 117.936 53.5174 117.708 54.1157 117.301C54.7139 116.894 55.05 116.342 55.05 115.767ZM181.46 115.746C181.46 115.165 181.121 114.608 180.517 114.198C179.913 113.787 179.094 113.556 178.24 113.556C177.386 113.556 176.567 113.787 175.963 114.198C175.359 114.608 175.02 115.165 175.02 115.746C175.02 116.327 175.359 116.884 175.963 117.295C176.567 117.706 177.386 117.936 178.24 117.936C179.094 117.936 179.913 117.706 180.517 117.295C181.121 116.884 181.46 116.327 181.46 115.746ZM223.41 133.03C223.41 132.461 223.078 131.916 222.487 131.515C221.897 131.113 221.095 130.887 220.26 130.887C219.425 130.887 218.623 131.113 218.033 131.515C217.442 131.916 217.11 132.461 217.11 133.03C217.11 133.598 217.442 134.143 218.033 134.545C218.623 134.946 219.425 135.172 220.26 135.172C221.095 135.172 221.897 134.946 222.487 134.545C223.078 134.143 223.41 133.598 223.41 133.03ZM13.02 144.361C13.02 143.784 12.6828 143.231 12.0827 142.822C11.4826 142.414 10.6687 142.185 9.81998 142.185C8.97129 142.185 8.15736 142.414 7.55724 142.822C6.95713 143.231 6.61998 143.784 6.61998 144.361C6.61998 144.939 6.95713 145.492 7.55724 145.901C8.15736 146.309 8.97129 146.538 9.81998 146.538C10.6687 146.538 11.4826 146.309 12.0827 145.901C12.6828 145.492 13.02 144.939 13.02 144.361ZM206.4 144.375C206.4 143.803 206.066 143.255 205.472 142.85C204.877 142.446 204.071 142.219 203.23 142.219C202.389 142.219 201.583 142.446 200.988 142.85C200.394 143.255 200.06 143.803 200.06 144.375C200.06 144.947 200.394 145.495 200.988 145.9C201.583 146.304 202.389 146.531 203.23 146.531C204.071 146.531 204.877 146.304 205.472 145.9C206.066 145.495 206.4 144.947 206.4 144.375Z" fill="#0042F7"/>
<path d="M411.25 115.944C415.217 117.417 416.957 119.524 416.47 122.262C415.9 125.439 412.34 127.228 407.65 127.105C407.432 127.099 407.216 127.136 407.028 127.213C406.84 127.289 406.688 127.4 406.59 127.534L397.71 139.634C397.624 139.751 397.583 139.881 397.59 140.012C397.597 140.142 397.652 140.27 397.75 140.382C402.43 145.708 397.38 151.265 388.22 149.919C385.42 149.51 383.76 148.225 382.99 146.531C382.923 146.383 382.789 146.254 382.607 146.162C382.426 146.07 382.206 146.021 381.98 146.021H275.97C275.742 146.021 275.518 146.067 275.328 146.153C275.137 146.239 274.989 146.361 274.9 146.504C273.293 149.12 270.307 150.308 265.94 150.068C261.92 149.85 259.45 148.313 258.55 145.593C257.477 142.35 259.163 140.006 263.61 138.559C263.748 138.515 263.864 138.444 263.945 138.356C264.027 138.269 264.07 138.167 264.07 138.063V36.2332C264.07 36.1427 264.031 36.0546 263.958 35.9806C263.884 35.9065 263.781 35.8499 263.66 35.8183C259.607 34.6801 257.84 32.5511 258.36 29.4314C258.967 25.7675 262.007 23.9287 267.48 23.9151C267.69 23.9154 267.896 23.876 268.075 23.8015C268.253 23.727 268.397 23.6203 268.49 23.4934L277.11 11.7331C277.21 11.5965 277.255 11.4451 277.241 11.2944C277.227 11.1437 277.154 10.9993 277.03 10.8761C273.6 7.47517 275.15 1.9045 282.07 1.23112C286.663 0.786733 289.923 1.9385 291.85 4.68643C291.922 4.78617 292.034 4.8702 292.172 4.92908C292.309 4.98795 292.468 5.01934 292.63 5.01972H316.59C316.91 5.01972 317.14 4.92223 317.28 4.72724C319.633 1.45784 323.69 0.387694 329.45 1.51679C332.197 2.0564 333.77 3.33968 334.17 5.36661C334.663 7.8198 334.19 9.70616 332.75 11.0257C331.81 11.8691 330.5 12.2024 329.27 12.7194C328.97 12.8463 328.82 13.03 328.82 13.2703V86.9066C328.82 87.1469 328.963 87.3397 329.25 87.4848C329.47 87.5936 329.913 87.7795 330.58 88.0425C332.013 88.6093 333.14 89.4482 333.96 90.5592C334.035 90.6595 334.149 90.7438 334.288 90.8026C334.428 90.8614 334.588 90.8925 334.75 90.8925H398.56C399.007 90.8925 399.34 90.7564 399.56 90.4844C401.227 88.3985 403.6 87.2331 406.68 86.9882C409.2 86.7842 411.343 87.1356 413.11 88.0425C416.78 89.9266 417.27 92.7562 415.9 95.5585C415.193 97.0005 413.617 97.9595 411.17 98.4357C410.83 98.5037 410.657 98.6601 410.65 98.905C410.49 107.639 410.527 113.146 410.76 115.427C410.787 115.658 410.95 115.83 411.25 115.944ZM287.04 6.93783C287.04 6.36056 286.703 5.80694 286.103 5.39876C285.503 4.99057 284.689 4.76125 283.84 4.76125C282.991 4.76125 282.177 4.99057 281.577 5.39876C280.977 5.80694 280.64 6.36056 280.64 6.93783C280.64 7.51509 280.977 8.06871 281.577 8.4769C282.177 8.88509 282.991 9.1144 283.84 9.1144C284.689 9.1144 285.503 8.88509 286.103 8.4769C286.703 8.06871 287.04 7.51509 287.04 6.93783ZM329.06 6.93103C329.06 6.35917 328.726 5.81074 328.132 5.40638C327.537 5.00202 326.731 4.77486 325.89 4.77486C325.049 4.77486 324.243 5.00202 323.648 5.40638C323.054 5.81074 322.72 6.35917 322.72 6.93103C322.72 7.50288 323.054 8.05131 323.648 8.45567C324.243 8.86003 325.049 9.0872 325.89 9.0872C326.731 9.0872 327.537 8.86003 328.132 8.45567C328.726 8.05131 329.06 7.50288 329.06 6.93103ZM291.92 9.31166C290.01 12.1072 287.36 12.869 282.96 13.0254C282.62 13.039 282.373 13.1479 282.22 13.3519C279.1 17.3423 276.427 21.1763 274.2 24.8538C273.993 25.1967 273.914 25.5689 273.968 25.9376C274.023 26.3064 274.21 26.6603 274.514 26.9681C274.817 27.276 275.227 27.5283 275.708 27.7029C276.189 27.8774 276.725 27.9688 277.27 27.969H299.69C300.23 27.969 300.607 27.8012 300.82 27.4657C302 25.5566 303.61 24.4842 305.65 24.2484C307.59 24.0262 308.917 23.872 309.63 23.7859C309.983 23.7405 310.24 23.609 310.4 23.3914L319.18 11.4202C319.313 11.2343 319.273 11.0665 319.06 10.9169C318.387 10.4589 317.86 9.94196 317.48 9.36607C317.397 9.24617 317.265 9.14481 317.101 9.07377C316.936 9.00273 316.745 8.96493 316.55 8.96477H292.73C292.56 8.96488 292.393 8.99754 292.25 9.05894C292.106 9.12035 291.992 9.20799 291.92 9.31166ZM323 16.1407C323 15.4786 322.783 15.4446 322.35 16.0386L315.54 25.3231C315.373 25.5453 315.397 25.7561 315.61 25.9557C317.43 27.6516 318.03 29.6037 317.41 31.812C316.897 33.6304 315.28 34.9318 312.56 35.7163C312.233 35.8115 312.07 35.9793 312.07 36.2196V106.06C312.07 106.7 312.28 106.734 312.7 106.163L319.31 97.1501C319.463 96.9461 319.437 96.7533 319.23 96.572C316.083 93.756 316.263 91.0738 319.77 88.5254C320.36 88.0901 321.6 87.6888 322.53 87.4644C322.843 87.3873 323 87.2376 323 87.0154V16.1407ZM269.97 29.9619C269.97 29.677 269.887 29.3948 269.727 29.1316C269.567 28.8683 269.332 28.6292 269.036 28.4277C268.739 28.2262 268.388 28.0664 268.001 27.9573C267.614 27.8483 267.199 27.7922 266.78 27.7922C265.934 27.7922 265.123 28.0208 264.524 28.4277C263.926 28.8346 263.59 29.3865 263.59 29.9619C263.59 30.5374 263.926 31.0893 264.524 31.4962C265.123 31.9031 265.934 32.1317 266.78 32.1317C267.199 32.1317 267.614 32.0756 268.001 31.9665C268.388 31.8575 268.739 31.6977 269.036 31.4962C269.332 31.2947 269.567 31.0555 269.727 30.7923C269.887 30.529 269.97 30.2469 269.97 29.9619ZM311.94 29.9755C311.94 29.6924 311.858 29.412 311.699 29.1504C311.539 28.8888 311.306 28.6511 311.012 28.4509C310.717 28.2507 310.368 28.0918 309.983 27.9835C309.598 27.8751 309.186 27.8194 308.77 27.8194C307.929 27.8194 307.123 28.0465 306.528 28.4509C305.934 28.8553 305.6 29.4037 305.6 29.9755C305.6 30.5474 305.934 31.0958 306.528 31.5002C307.123 31.9045 307.929 32.1317 308.77 32.1317C309.186 32.1317 309.598 32.0759 309.983 31.9676C310.368 31.8592 310.717 31.7004 311.012 31.5002C311.306 31.3 311.539 31.0623 311.699 30.8007C311.858 30.5391 311.94 30.2587 311.94 29.9755ZM329.06 92.6881C329.06 92.1181 328.727 91.5714 328.134 91.1683C327.542 90.7652 326.738 90.5388 325.9 90.5388C325.062 90.5388 324.258 90.7652 323.666 91.1683C323.073 91.5714 322.74 92.1181 322.74 92.6881C322.74 93.2582 323.073 93.8049 323.666 94.208C324.258 94.6111 325.062 94.8375 325.9 94.8375C326.738 94.8375 327.542 94.6111 328.134 94.208C328.727 93.8049 329.06 93.2582 329.06 92.6881ZM411.02 92.6813C411.02 92.1257 410.695 91.5929 410.118 91.2C409.54 90.8071 408.757 90.5864 407.94 90.5864C407.123 90.5864 406.34 90.8071 405.762 91.2C405.185 91.5929 404.86 92.1257 404.86 92.6813C404.86 93.237 405.185 93.7698 405.762 94.1627C406.34 94.5556 407.123 94.7763 407.94 94.7763C408.757 94.7763 409.54 94.5556 410.118 94.1627C410.695 93.7698 411.02 93.237 411.02 92.6813ZM382.86 113.284C384.27 110.829 387.55 109.652 391.55 109.835C391.89 109.854 392.137 109.758 392.29 109.55L401.32 97.2317C401.447 97.0594 401.44 96.8917 401.3 96.7284L399.74 94.8851C399.52 94.6267 399.19 94.4974 398.75 94.4974H335.12C334.493 94.4974 334.05 94.6901 333.79 95.0756C332.43 97.0662 330.423 98.1817 327.77 98.4221C327.203 98.4719 326.363 98.5445 325.25 98.6397C324.923 98.6715 324.683 98.7871 324.53 98.9866L315.88 110.781C315.657 111.086 315.552 111.424 315.575 111.764C315.598 112.104 315.749 112.435 316.012 112.724C316.275 113.014 316.643 113.253 317.08 113.419C317.517 113.584 318.01 113.671 318.51 113.672H382.02C382.2 113.672 382.376 113.635 382.526 113.566C382.676 113.497 382.792 113.399 382.86 113.284ZM404.82 115.821C404.929 115.782 405.021 115.723 405.086 115.65C405.151 115.577 405.187 115.493 405.19 115.406C405.317 109.606 405.28 104.988 405.08 101.551C405.06 101.206 404.937 101.188 404.71 101.496L397.74 110.992C397.58 111.209 397.593 111.42 397.78 111.624C398.513 112.427 398.98 113.139 399.18 113.76C400.38 117.483 398.75 119.997 394.29 121.303C394.151 121.343 394.032 121.411 393.948 121.497C393.864 121.582 393.82 121.683 393.82 121.786V135.009C393.82 135.508 393.99 135.535 394.33 135.091L401.33 125.867C401.4 125.776 401.435 125.673 401.429 125.57C401.424 125.466 401.38 125.365 401.3 125.276C397.72 121.136 398.893 117.984 404.82 115.821ZM311.406 116.908C311.638 116.686 311.799 116.434 311.88 116.166C311.961 115.897 311.961 115.617 311.879 115.341C311.797 115.066 311.636 114.8 311.403 114.56C311.171 114.319 310.873 114.109 310.525 113.94C309.824 113.6 308.965 113.451 308.137 113.526C307.31 113.601 306.582 113.894 306.114 114.34C305.882 114.561 305.721 114.813 305.64 115.082C305.559 115.351 305.559 115.631 305.641 115.906C305.723 116.182 305.884 116.447 306.117 116.688C306.349 116.928 306.647 117.139 306.995 117.307C307.696 117.648 308.555 117.797 309.383 117.722C310.21 117.647 310.938 117.354 311.406 116.908ZM394.05 115.61C394.05 115.04 393.717 114.493 393.124 114.09C392.532 113.687 391.728 113.461 390.89 113.461C390.052 113.461 389.248 113.687 388.656 114.09C388.063 114.493 387.73 115.04 387.73 115.61C387.73 116.18 388.063 116.727 388.656 117.13C389.248 117.533 390.052 117.76 390.89 117.76C391.728 117.76 392.532 117.533 393.124 117.13C393.717 116.727 394.05 116.18 394.05 115.61ZM411.02 121.29C411.02 120.734 410.695 120.201 410.118 119.808C409.54 119.415 408.757 119.195 407.94 119.195C407.123 119.195 406.34 119.415 405.762 119.808C405.185 120.201 404.86 120.734 404.86 121.29C404.86 121.845 405.185 122.378 405.762 122.771C406.34 123.164 407.123 123.385 407.94 123.385C408.757 123.385 409.54 123.164 410.118 122.771C410.695 122.378 411.02 121.845 411.02 121.29ZM270 144.171C270 143.592 269.662 143.037 269.06 142.627C268.458 142.218 267.641 141.988 266.79 141.988C265.939 141.988 265.122 142.218 264.52 142.627C263.918 143.037 263.58 143.592 263.58 144.171C263.58 144.75 263.918 145.305 264.52 145.715C265.122 146.124 265.939 146.354 266.79 146.354C267.641 146.354 268.458 146.124 269.06 145.715C269.662 145.305 270 144.75 270 144.171ZM394.06 144.219C394.06 143.649 393.727 143.102 393.134 142.699C392.542 142.296 391.738 142.069 390.9 142.069C390.062 142.069 389.258 142.296 388.666 142.699C388.073 143.102 387.74 143.649 387.74 144.219C387.74 144.789 388.073 145.335 388.666 145.738C389.258 146.142 390.062 146.368 390.9 146.368C391.738 146.368 392.542 146.142 393.134 145.738C393.727 145.335 394.06 144.789 394.06 144.219Z" fill="#0042F7"/>
<path d="M614.77 91.0625H653.03C653.403 91.0625 653.687 90.9514 653.88 90.7292C656.313 87.8543 659.793 86.7026 664.32 87.2739C673.51 88.437 673.39 96.2115 665.69 98.4833C665.556 98.5221 665.442 98.5874 665.362 98.6709C665.282 98.7543 665.239 98.8523 665.24 98.9526V115.488C665.24 115.755 665.42 115.948 665.78 116.066C670.08 117.474 672.48 120.474 670.82 123.589C669.52 126.028 666.57 127.282 661.97 127.35C661.814 127.352 661.661 127.384 661.529 127.441C661.397 127.499 661.29 127.58 661.22 127.677L652.21 139.954C652.118 140.079 652.081 140.22 652.104 140.36C652.127 140.5 652.209 140.633 652.34 140.743C654.093 142.194 654.673 143.876 654.08 145.79C653.307 148.279 650.89 149.726 646.83 150.129C642.943 150.51 639.737 149.399 637.21 146.796C636.923 146.506 636.523 146.361 636.01 146.361H444.06C443.747 146.361 443.5 146.447 443.32 146.62C443.08 146.855 442.863 147.089 442.67 147.32C438.94 151.762 428.63 150.891 427.2 145.661C426.41 142.77 428.5 140.274 432.15 138.961C432.337 138.893 432.494 138.793 432.603 138.671C432.712 138.548 432.77 138.409 432.77 138.267V36.24C432.77 36.1377 432.727 36.0373 432.648 35.9497C432.569 35.8621 432.455 35.7908 432.32 35.7435C428.613 34.4285 426.86 32.4695 427.06 29.8667C427.34 26.255 430.08 24.194 435.47 24.2144C436.083 24.2189 436.527 24.0353 436.8 23.6635L445.56 11.7263C445.713 11.5086 445.72 11.291 445.58 11.0733C445.14 10.3932 444.36 9.75379 444.06 9.10081C442.23 5.12856 445.43 1.43518 451.58 1.18352C455.2 1.03388 457.88 2.08135 459.73 4.24433C459.963 4.5164 460.25 4.75673 460.59 4.96532C460.814 5.1094 461.111 5.18969 461.42 5.18978H653.02C653.38 5.18978 653.68 5.09682 653.92 4.9109C654.167 4.72499 654.377 4.51413 654.55 4.27834C657.16 0.67338 665.2 0.040813 669.03 2.91117C670.637 4.11736 671.387 5.70898 671.28 7.68604C671.147 10.2798 669.303 12.0211 665.75 12.9098C665.601 12.9452 665.471 13.0114 665.38 13.0992C665.288 13.187 665.24 13.292 665.24 13.3996V29.6082C665.24 29.844 665.377 30.0368 665.65 30.1864C665.843 30.2907 666.393 30.5492 667.3 30.9618C670.713 32.5081 671.943 34.6257 670.99 37.3147C670.11 39.7951 667.697 41.1894 663.75 41.4978C662.837 41.5703 662.197 41.6248 661.83 41.661C661.673 41.6777 661.523 41.7198 661.395 41.7837C661.266 41.8475 661.161 41.9314 661.09 42.0283L652.13 54.2376C652.064 54.3283 652.034 54.4297 652.045 54.5312C652.055 54.6328 652.106 54.731 652.19 54.8157C657.88 60.4204 651.18 65.651 642.14 64.0254C639.847 63.6127 638.233 62.5584 637.3 60.8625C637.16 60.6131 636.897 60.4884 636.51 60.4884H623.78C623.42 60.4884 623.24 60.6109 623.24 60.8557V72.4528C623.24 72.7158 623.41 72.9108 623.75 73.0378C628.897 75.0103 630.287 77.8512 627.92 81.5604C626.533 83.737 623.713 84.7278 619.46 84.5328C619.372 84.5283 619.283 84.5422 619.206 84.5725C619.13 84.6029 619.068 84.6483 619.03 84.7028L614.55 90.8109C614.529 90.8368 614.519 90.866 614.519 90.8955C614.52 90.9251 614.532 90.954 614.554 90.9794C614.577 91.0048 614.608 91.0258 614.646 91.0404C614.684 91.055 614.727 91.0626 614.77 91.0625ZM455.54 7.08748C455.54 6.51382 455.205 5.96366 454.609 5.55803C454.012 5.15239 453.203 4.92451 452.36 4.92451C451.517 4.92451 450.708 5.15239 450.111 5.55803C449.515 5.96366 449.18 6.51382 449.18 7.08748C449.18 7.66114 449.515 8.2113 450.111 8.61693C450.708 9.02257 451.517 9.25045 452.36 9.25045C453.203 9.25045 454.012 9.02257 454.609 8.61693C455.205 8.2113 455.54 7.66114 455.54 7.08748ZM665.65 7.09428C665.65 6.52423 665.317 5.97753 664.725 5.57445C664.132 5.17136 663.328 4.94491 662.49 4.94491C661.652 4.94491 660.848 5.17136 660.256 5.57445C659.663 5.97753 659.33 6.52423 659.33 7.09428C659.33 7.66433 659.663 8.21103 660.256 8.61411C660.848 9.0172 661.652 9.24365 662.49 9.24365C663.328 9.24365 664.132 9.0172 664.725 8.61411C665.317 8.21103 665.65 7.66433 665.65 7.09428ZM461 9.13482C460.862 9.13508 460.727 9.16134 460.61 9.21063C460.493 9.25992 460.4 9.33027 460.34 9.4137C458.633 11.8487 455.773 13.0436 451.76 12.9982C451.586 12.9961 451.415 13.0276 451.266 13.089C451.118 13.1504 450.998 13.2392 450.92 13.3451L442.42 24.9286C442.185 25.2493 442.074 25.6056 442.098 25.9637C442.122 26.3218 442.281 26.6697 442.558 26.9744C442.836 27.279 443.223 27.5304 443.684 27.7045C444.145 27.8786 444.663 27.9696 445.19 27.969H636.59C636.766 27.9692 636.937 27.9326 637.081 27.8644C637.224 27.7962 637.332 27.6996 637.39 27.5881C638.93 24.6837 642.21 24.3981 646.18 24.1328C646.5 24.1147 646.73 24.0081 646.87 23.8131L655.61 11.91C655.77 11.6832 655.76 11.4633 655.58 11.2502L654.09 9.50212C653.883 9.25725 653.573 9.13482 653.16 9.13482H461ZM654.25 30.2612C654.13 32.787 652.35 34.628 648.91 35.7843C648.623 35.884 648.483 36.0405 648.49 36.2536L648.87 48.7213C648.89 49.3879 649.12 49.4219 649.56 48.8233L655.9 40.1714C655.946 40.1098 655.966 40.0411 655.959 39.9729C655.952 39.9046 655.918 39.8392 655.86 39.7837C652.833 36.9406 652.833 34.2289 655.86 31.6488C656.46 31.1455 658.2 30.5537 659.22 30.2272C659.358 30.1842 659.474 30.1151 659.556 30.0283C659.637 29.9415 659.68 29.8405 659.68 29.7375V16.3311C659.68 15.6918 659.47 15.6578 659.05 16.2291L652.13 25.6632C651.983 25.8627 652.007 26.0554 652.2 26.2414C653.633 27.6062 654.317 28.9462 654.25 30.2612ZM438.344 30.2017C438.5 29.7412 438.381 29.2573 438.013 28.8565C437.644 28.4557 437.057 28.1708 436.38 28.0644L435.367 27.9053C434.69 27.799 433.978 27.8799 433.389 28.1304C432.8 28.3809 432.381 28.7803 432.225 29.2408L432.117 29.5589C431.96 30.0195 432.079 30.5033 432.448 30.9042C432.816 31.305 433.403 31.5899 434.08 31.6962L435.093 31.8554C435.77 31.9617 436.482 31.8807 437.071 31.6302C437.66 31.3798 438.079 30.9803 438.236 30.5198L438.344 30.2017ZM648.6 30.7782C648.898 30.2959 648.873 29.7445 648.531 29.2453C648.188 28.7461 647.556 28.34 646.774 28.1163C646.386 28.0056 645.974 27.9429 645.559 27.932C645.145 27.921 644.737 27.962 644.359 28.0525C643.98 28.1431 643.639 28.2814 643.355 28.4596C643.07 28.6379 642.848 28.8525 642.7 29.0913C642.402 29.5736 642.427 30.1249 642.769 30.6241C643.112 31.1233 643.744 31.5294 644.526 31.7531C644.914 31.8639 645.326 31.9265 645.741 31.9375C646.155 31.9484 646.563 31.9075 646.941 31.8169C647.32 31.7264 647.661 31.5881 647.945 31.4098C648.23 31.2316 648.452 31.017 648.6 30.7782ZM665.69 35.5122C665.69 34.9404 665.356 34.3919 664.762 33.9876C664.167 33.5832 663.361 33.356 662.52 33.356C661.679 33.356 660.873 33.5832 660.278 33.9876C659.684 34.3919 659.35 34.9404 659.35 35.5122C659.35 36.0841 659.684 36.6325 660.278 37.0368C660.873 37.4412 661.679 37.6684 662.52 37.6684C663.361 37.6684 664.167 37.4412 664.762 37.0368C665.356 36.6325 665.69 36.0841 665.69 35.5122ZM480.48 58.5499C480.48 57.9961 480.157 57.465 479.581 57.0734C479.005 56.6818 478.224 56.4618 477.41 56.4618C477.007 56.4618 476.608 56.5158 476.235 56.6207C475.863 56.7257 475.524 56.8795 475.239 57.0734C474.954 57.2673 474.728 57.4975 474.574 57.7508C474.419 58.0042 474.34 58.2757 474.34 58.5499C474.34 58.8241 474.419 59.0957 474.574 59.349C474.728 59.6024 474.954 59.8326 475.239 60.0265C475.524 60.2204 475.863 60.3742 476.235 60.4791C476.608 60.5841 477.007 60.6381 477.41 60.6381C477.813 60.6381 478.212 60.5841 478.585 60.4791C478.957 60.3742 479.296 60.2204 479.581 60.0265C479.866 59.8326 480.092 59.6024 480.246 59.349C480.401 59.0957 480.48 58.8241 480.48 58.5499ZM648.094 60.0798C648.348 59.8787 648.536 59.6423 648.648 59.384C648.759 59.1258 648.791 58.8507 648.742 58.5747C648.693 58.2986 648.564 58.0269 648.362 57.775C648.161 57.5231 647.89 57.2961 647.567 57.1068C646.913 56.7245 646.083 56.5192 645.257 56.5361C644.432 56.553 643.68 56.7906 643.166 57.1968C642.912 57.398 642.724 57.6344 642.613 57.8927C642.501 58.1509 642.469 58.4259 642.518 58.702C642.567 58.9781 642.696 59.2498 642.898 59.5017C643.099 59.7535 643.37 59.9806 643.693 60.1699C644.347 60.5522 645.178 60.7575 646.003 60.7406C646.828 60.7237 647.58 60.486 648.094 60.0798ZM595.16 70.5891C596.69 67.814 599.63 66.6713 603.89 66.7869C604.156 66.7928 604.419 66.7466 604.648 66.6538C604.877 66.5609 605.061 66.4253 605.18 66.2632L609.02 61.0394C609.287 60.6721 609.12 60.4884 608.52 60.4884H490.49C490.298 60.4881 490.109 60.5248 489.945 60.5945C489.781 60.6642 489.647 60.7641 489.56 60.8829L484.38 67.95C484.152 68.2619 484.045 68.6081 484.069 68.9561C484.092 69.304 484.246 69.642 484.515 69.9382C484.785 70.2345 485.161 70.4791 485.608 70.6489C486.055 70.8187 486.558 70.9082 487.07 70.9088H594.49C594.823 70.9088 595.047 70.8022 595.16 70.5891ZM608.9 77.7922C608.35 78.1119 607.6 78.2683 606.93 78.5472C606.63 78.6696 606.48 78.8488 606.48 79.0845V92.2868C606.475 92.329 606.492 92.3711 606.528 92.4055C606.565 92.4398 606.618 92.4641 606.678 92.474C606.739 92.4839 606.803 92.4787 606.858 92.4593C606.913 92.4399 606.957 92.4077 606.98 92.3685L613.64 83.2881C613.78 83.0976 613.787 82.9049 613.66 82.7099C612.607 81.1319 612.033 79.9801 611.94 79.2546C611.567 76.2074 613.36 74.126 617.32 73.0105C617.613 72.9289 617.76 72.7793 617.76 72.5616V61.0394C617.76 60.9253 617.71 60.8141 617.618 60.7206C617.525 60.6271 617.393 60.5556 617.24 60.5156C616.427 60.3025 615.823 60.4703 615.43 61.019C614.183 62.733 612.547 65.1046 610.52 68.1337C610.32 68.4329 610.347 68.7254 610.6 69.0111C613.66 72.4528 613.093 75.3798 608.9 77.7922ZM480 64.1886C479.887 64.3972 479.993 64.4947 480.32 64.4811C480.667 64.4584 480.747 64.3655 480.56 64.2022C480.3 63.9755 480.113 63.971 480 64.1886ZM606.75 72.8949C606.75 72.6198 606.67 72.3474 606.516 72.0932C606.361 71.839 606.134 71.6081 605.848 71.4136C605.562 71.219 605.222 71.0647 604.849 70.9594C604.475 70.8541 604.074 70.8 603.67 70.8C602.853 70.8 602.07 71.0207 601.492 71.4136C600.915 71.8064 600.59 72.3393 600.59 72.8949C600.59 73.4505 600.915 73.9834 601.492 74.3763C602.07 74.7691 602.853 74.9899 603.67 74.9899C604.074 74.9899 604.475 74.9357 604.849 74.8304C605.222 74.7251 605.562 74.5708 605.848 74.3763C606.134 74.1817 606.361 73.9508 606.516 73.6966C606.67 73.4424 606.75 73.17 606.75 72.8949ZM480.257 71.7522C479.881 71.3101 479.233 70.9993 478.455 70.8882C477.676 70.7771 476.831 70.8748 476.105 71.1598C475.746 71.301 475.426 71.4838 475.165 71.698C474.905 71.9122 474.707 72.1535 474.584 72.408C474.462 72.6626 474.416 72.9256 474.45 73.1818C474.484 73.4381 474.598 73.6827 474.783 73.9016C475.159 74.3437 475.807 74.6545 476.586 74.7656C477.364 74.8767 478.209 74.779 478.935 74.4939C479.294 74.3528 479.614 74.1699 479.875 73.9558C480.136 73.7416 480.333 73.5004 480.456 73.2458C480.578 72.9912 480.624 72.7282 480.59 72.472C480.556 72.2157 480.442 71.9711 480.257 71.7522ZM623.61 78.5472C623.61 77.9736 623.275 77.4234 622.679 77.0178C622.082 76.6121 621.273 76.3842 620.43 76.3842C619.587 76.3842 618.778 76.6121 618.181 77.0178C617.585 77.4234 617.25 77.9736 617.25 78.5472C617.25 79.1209 617.585 79.671 618.181 80.0767C618.778 80.4823 619.587 80.7102 620.43 80.7102C621.273 80.7102 622.082 80.4823 622.679 80.0767C623.275 79.671 623.61 79.1209 623.61 78.5472ZM665.65 92.763C665.65 92.1839 665.312 91.6286 664.71 91.2191C664.108 90.8096 663.291 90.5796 662.44 90.5796C661.589 90.5796 660.772 90.8096 660.17 91.2191C659.568 91.6286 659.23 92.1839 659.23 92.763C659.23 93.342 659.568 93.8974 660.17 94.3069C660.772 94.7163 661.589 94.9464 662.44 94.9464C663.291 94.9464 664.108 94.7163 664.71 94.3069C665.312 93.8974 665.65 93.342 665.65 92.763ZM599.14 106.754C596.98 106.163 595.94 105.122 595.39 103.775C595.342 103.65 595.234 103.54 595.084 103.461C594.934 103.383 594.75 103.34 594.56 103.34H490.51C490.143 103.34 489.877 103.453 489.71 103.68L484.34 110.999C484.12 111.299 484.017 111.632 484.039 111.966C484.062 112.301 484.21 112.627 484.47 112.911C484.729 113.196 485.091 113.431 485.522 113.594C485.953 113.757 486.437 113.842 486.93 113.842H636.67C636.801 113.842 636.929 113.815 637.035 113.763C637.141 113.712 637.22 113.64 637.26 113.556C638.69 110.584 642.22 110.006 646.37 109.849C646.485 109.845 646.597 109.82 646.694 109.777C646.791 109.734 646.869 109.675 646.92 109.604L655.83 97.463C655.977 97.259 655.943 97.0731 655.73 96.9053C654.977 96.3158 654.4 95.6855 654 95.0144C653.86 94.7831 653.607 94.6675 653.24 94.6675H612.47C612.143 94.6675 611.907 94.765 611.76 94.96L610.37 96.8577C610.177 97.1252 610.203 97.3791 610.45 97.6195C616.46 103.517 608.24 109.257 599.14 106.754ZM606.9 101.571C606.9 101.286 606.818 101.004 606.657 100.741C606.497 100.478 606.262 100.239 605.966 100.037C605.67 99.8356 605.318 99.6757 604.931 99.5667C604.544 99.4577 604.129 99.4015 603.71 99.4015C603.291 99.4015 602.876 99.4577 602.489 99.5667C602.102 99.6757 601.751 99.8356 601.454 100.037C601.158 100.239 600.923 100.478 600.763 100.741C600.603 101.004 600.52 101.286 600.52 101.571C600.52 102.147 600.856 102.699 601.454 103.106C602.053 103.512 602.864 103.741 603.71 103.741C604.556 103.741 605.367 103.512 605.966 103.106C606.564 102.699 606.9 102.147 606.9 101.571ZM480.111 102.641C480.315 102.409 480.447 102.152 480.5 101.883C480.553 101.615 480.527 101.34 480.422 101.076C480.318 100.812 480.137 100.562 479.891 100.342C479.645 100.122 479.337 99.9355 478.986 99.7933C478.636 99.651 478.248 99.5558 477.846 99.513C477.445 99.4703 477.036 99.4809 476.645 99.5441C476.253 99.6074 475.886 99.7221 475.564 99.8817C475.242 100.041 474.972 100.243 474.769 100.475C474.566 100.706 474.434 100.964 474.38 101.232C474.327 101.501 474.353 101.775 474.458 102.039C474.562 102.304 474.743 102.553 474.989 102.773C475.235 102.993 475.543 103.18 475.894 103.322C476.244 103.464 476.632 103.56 477.034 103.602C477.435 103.645 477.844 103.635 478.236 103.571C478.627 103.508 478.994 103.393 479.316 103.234C479.638 103.074 479.908 102.873 480.111 102.641ZM653.68 120.902C654.16 118.338 656.37 117.311 659.28 115.964C659.406 115.908 659.509 115.832 659.581 115.743C659.652 115.654 659.69 115.554 659.69 115.454V102.047C659.69 101.494 659.507 101.467 659.14 101.966L652.01 111.679C651.956 111.755 651.94 111.841 651.965 111.925C651.991 112.008 652.056 112.084 652.15 112.141C654.02 113.257 654.18 114.461 654.22 116.202C654.287 118.809 652.537 120.614 648.97 121.616C648.828 121.657 648.706 121.725 648.621 121.812C648.536 121.899 648.49 122.001 648.49 122.106V135.084C648.49 135.764 648.713 135.8 649.16 135.193L655.78 126.16C655.933 125.951 655.923 125.745 655.75 125.541C654.143 123.636 653.453 122.09 653.68 120.902ZM480.64 115.719C480.64 115.153 480.309 114.609 479.72 114.209C479.131 113.808 478.333 113.583 477.5 113.583C476.667 113.583 475.869 113.808 475.28 114.209C474.691 114.609 474.36 115.153 474.36 115.719C474.36 116.285 474.691 116.829 475.28 117.229C475.869 117.63 476.667 117.855 477.5 117.855C478.333 117.855 479.131 117.63 479.72 117.229C480.309 116.829 480.64 116.285 480.64 115.719ZM648.85 115.787C648.85 115.217 648.517 114.67 647.924 114.267C647.332 113.864 646.528 113.638 645.69 113.638C645.275 113.638 644.864 113.693 644.481 113.801C644.097 113.909 643.749 114.068 643.456 114.267C643.162 114.467 642.929 114.704 642.771 114.965C642.612 115.225 642.53 115.505 642.53 115.787C642.53 116.069 642.612 116.349 642.771 116.61C642.929 116.87 643.162 117.107 643.456 117.307C643.749 117.507 644.097 117.665 644.481 117.773C644.864 117.881 645.275 117.936 645.69 117.936C646.528 117.936 647.332 117.71 647.924 117.307C648.517 116.904 648.85 116.357 648.85 115.787ZM665.57 121.46C665.57 120.897 665.241 120.357 664.656 119.959C664.071 119.561 663.278 119.338 662.45 119.338C661.623 119.338 660.829 119.561 660.244 119.959C659.659 120.357 659.33 120.897 659.33 121.46C659.33 122.023 659.659 122.562 660.244 122.96C660.829 123.358 661.623 123.582 662.45 123.582C663.278 123.582 664.071 123.358 664.656 122.96C665.241 122.562 665.57 122.023 665.57 121.46ZM438.45 144.368C438.45 143.789 438.112 143.234 437.51 142.824C436.908 142.415 436.091 142.185 435.24 142.185C434.389 142.185 433.572 142.415 432.97 142.824C432.368 143.234 432.03 143.789 432.03 144.368C432.03 144.947 432.368 145.503 432.97 145.912C433.572 146.322 434.389 146.552 435.24 146.552C436.091 146.552 436.908 146.322 437.51 145.912C438.112 145.503 438.45 144.947 438.45 144.368ZM648.93 144.382C648.93 143.806 648.594 143.255 647.996 142.848C647.397 142.441 646.586 142.212 645.74 142.212C644.894 142.212 644.083 142.441 643.484 142.848C642.886 143.255 642.55 143.806 642.55 144.382C642.55 144.957 642.886 145.509 643.484 145.916C644.083 146.323 644.894 146.552 645.74 146.552C646.586 146.552 647.397 146.323 647.996 145.916C648.594 145.509 648.93 144.957 648.93 144.382Z" fill="#0042F7"/>
<path d="M856.62 90.5932V36.3012C856.62 36.1153 856.51 35.9679 856.29 35.8591C856.037 35.7321 855.593 35.5417 854.96 35.2877C848.89 32.8731 848.85 26.1665 856.09 24.5409C856.803 24.3777 858.063 24.2325 859.87 24.1056C860.23 24.0784 860.487 23.9559 860.64 23.7383L869.43 11.7671C869.498 11.6722 869.532 11.5673 869.528 11.4609C869.525 11.3545 869.484 11.2496 869.41 11.155C867.04 8.12135 866.7 4.74085 870.59 2.47585C874.59 0.142835 880.03 0.979456 882.88 3.82261C883.347 4.28967 883.743 4.6547 884.07 4.9177C884.29 5.09908 884.57 5.18977 884.91 5.18977H909.02C909.393 5.18977 909.653 5.07187 909.8 4.83608C911.3 2.40784 914.7 0.925042 918.62 1.19711C923.227 1.51 925.893 3.22859 926.62 6.35288C927.31 9.29126 925.41 11.9916 921.07 12.9302C920.957 12.9536 920.858 13.0006 920.788 13.0643C920.718 13.128 920.68 13.205 920.68 13.2839V92.3753C920.68 92.5385 920.751 92.6981 920.885 92.8338C921.018 92.9694 921.208 93.075 921.43 93.1371C925.77 94.3546 927.37 96.7828 926.4 99.9253C925.493 102.873 922.48 104.408 917.36 104.53C917.209 104.534 917.062 104.566 916.935 104.623C916.809 104.679 916.706 104.757 916.64 104.85L907.73 116.984C907.59 117.179 907.607 117.37 907.78 117.556C909.953 119.818 910.26 122.054 908.7 124.262C906.32 127.643 901.75 127.779 896.94 126.752C896.613 126.679 896.323 126.718 896.07 126.867C887.303 131.846 878.357 136.936 869.23 142.137C868.41 142.6 867.95 142.811 867.96 143.6C867.98 148.27 864.473 150.417 857.44 150.041C854.36 149.878 852.247 148.778 851.1 146.742C850.953 146.488 850.68 146.361 850.28 146.361H742.01C741.637 146.361 741.35 146.468 741.15 146.681C738.383 149.678 734.667 150.755 730 149.912C727.607 149.481 726.04 148.651 725.3 147.422C724.48 146.062 724.25 144.545 724.61 142.872C724.703 142.427 724.49 142.067 723.97 141.79L696.56 126.996C696.32 126.865 696.043 126.806 695.73 126.82C695.35 126.833 694.69 126.913 693.75 127.058C688.397 127.892 684.81 126.724 682.99 123.555C681.42 120.814 682.72 117.664 686.85 116.182C687.21 116.05 687.537 115.905 687.83 115.746C688.063 115.619 688.18 115.454 688.18 115.25V36.3556C688.18 36.0926 688.007 35.8999 687.66 35.7775C684.067 34.4579 682.32 32.5239 682.42 29.9755C682.55 26.3842 685.57 24.024 691.03 24.228C691.303 24.2382 691.575 24.1934 691.813 24.0992C692.051 24.005 692.244 23.8655 692.37 23.6975L701.11 11.7875C701.234 11.616 701.291 11.4257 701.273 11.2358C701.256 11.0459 701.165 10.8632 701.01 10.706C693.2 2.73432 711.69 -2.98599 715.95 4.75446C716.021 4.8803 716.147 4.98861 716.311 5.0651C716.475 5.1416 716.67 5.18269 716.87 5.18297H740.57C740.903 5.18297 741.187 5.10135 741.42 4.93811C741.93 4.57761 742.26 3.95184 742.64 3.61856C744.247 2.20832 746.257 1.39663 748.67 1.18351C755.01 0.625763 758.84 3.50292 758.47 7.87648C758.263 10.375 756.563 12.0483 753.37 12.8962C753.26 12.9262 753.166 12.9779 753.1 13.0446C753.034 13.1113 752.999 13.1899 753 13.2703V86.9066C753 87.2739 753.247 87.5301 753.74 87.6752C755.34 88.1377 756.557 88.8247 757.39 89.7362C757.81 90.1987 758.11 90.5025 758.29 90.6476C758.49 90.8109 758.747 90.8925 759.06 90.8925H856.19C856.304 90.8925 856.413 90.8609 856.494 90.8048C856.575 90.7487 856.62 90.6726 856.62 90.5932ZM711.154 7.53735C711.248 7.27993 711.261 7.0113 711.19 6.74677C711.12 6.48224 710.968 6.22701 710.744 5.99564C710.52 5.76427 710.227 5.56129 709.883 5.3983C709.539 5.23532 709.15 5.1155 708.738 5.04571C708.327 4.97591 707.901 4.95749 707.484 4.99151C707.068 5.02554 706.67 5.11133 706.312 5.24399C705.954 5.37665 705.644 5.55359 705.399 5.7647C705.155 5.9758 704.98 6.21695 704.886 6.47436C704.792 6.73177 704.779 7.00041 704.849 7.26494C704.92 7.52946 705.071 7.7847 705.296 8.01607C705.52 8.24744 705.813 8.45041 706.157 8.6134C706.501 8.77639 706.89 8.8962 707.301 8.966C707.713 9.0358 708.139 9.05421 708.555 9.02019C708.972 8.98617 709.37 8.90038 709.728 8.76772C710.086 8.63505 710.396 8.45812 710.641 8.24701C710.885 8.0359 711.06 7.79476 711.154 7.53735ZM753.13 6.99905C753.13 6.44524 752.807 5.91411 752.231 5.5225C751.655 5.1309 750.874 4.9109 750.06 4.9109C749.246 4.9109 748.465 5.1309 747.889 5.5225C747.313 5.91411 746.99 6.44524 746.99 6.99905C746.99 7.55286 747.313 8.08399 747.889 8.4756C748.465 8.8672 749.246 9.0872 750.06 9.0872C750.874 9.0872 751.655 8.8672 752.231 8.4756C752.807 8.08399 753.13 7.55286 753.13 6.99905ZM878.94 6.98545C878.94 6.43524 878.619 5.90757 878.047 5.51852C877.475 5.12947 876.699 4.9109 875.89 4.9109C875.081 4.9109 874.305 5.12947 873.733 5.51852C873.161 5.90757 872.84 6.43524 872.84 6.98545C872.84 7.25788 872.919 7.52765 873.072 7.77934C873.225 8.03104 873.45 8.25974 873.733 8.45238C874.305 8.84143 875.081 9.06 875.89 9.06C876.29 9.06 876.687 9.00634 877.057 8.90208C877.427 8.79783 877.763 8.64502 878.047 8.45238C878.33 8.25974 878.554 8.03104 878.708 7.77934C878.861 7.52765 878.94 7.25788 878.94 6.98545ZM921.04 6.99225C921.04 6.45106 920.724 5.93204 920.161 5.54937C919.599 5.16669 918.836 4.95171 918.04 4.95171C917.244 4.95171 916.481 5.16669 915.919 5.54937C915.356 5.93204 915.04 6.45106 915.04 6.99225C915.04 7.53343 915.356 8.05245 915.919 8.43513C916.481 8.81781 917.244 9.03279 918.04 9.03279C918.836 9.03279 919.599 8.81781 920.161 8.43513C920.724 8.05245 921.04 7.53343 921.04 6.99225ZM713.11 11.8079C712.323 12.2206 711.17 12.4994 709.65 12.6445C708.83 12.7216 707.983 12.8101 707.11 12.9098C706.783 12.9461 706.547 13.064 706.4 13.2635L697.56 25.3095C697.492 25.4015 697.46 25.5038 697.465 25.6071C697.47 25.7105 697.513 25.8115 697.59 25.9013L699.05 27.6153C699.23 27.8284 699.5 27.935 699.86 27.935H723.87C724.197 27.935 724.44 27.8352 724.6 27.6357C725.46 26.5293 726.48 25.6677 727.66 25.051C728.447 24.6384 729.6 24.3595 731.12 24.2144C731.94 24.1373 732.787 24.0489 733.66 23.9491C733.987 23.9129 734.223 23.795 734.37 23.5954L743.21 11.5495C743.278 11.4574 743.31 11.3551 743.305 11.2518C743.3 11.1485 743.257 11.0474 743.18 10.9577L741.72 9.24365C741.54 9.03052 741.27 8.92396 740.91 8.92396H716.9C716.573 8.92396 716.33 9.02372 716.17 9.22324C715.31 10.3297 714.29 11.1912 713.11 11.8079ZM901.52 24.1124C901.755 24.1184 901.988 24.0779 902.19 23.9958C902.393 23.9137 902.556 23.7936 902.66 23.6499L910.94 12.3589C911.202 12.0015 911.326 11.6045 911.299 11.2055C911.273 10.8065 911.097 10.4187 910.789 10.0789C910.48 9.73898 910.049 9.45828 909.537 9.26332C909.024 9.06837 908.447 8.96561 907.86 8.96477H884.64C884.267 8.96477 883.997 9.07814 883.83 9.30486C882.123 11.5857 879.34 12.7692 875.48 12.8554C875.113 12.8645 874.85 12.9801 874.69 13.2023L866.04 24.9966C865.81 25.3097 865.701 25.6576 865.724 26.0073C865.748 26.3569 865.902 26.6968 866.172 26.9946C866.443 27.2923 866.821 27.5381 867.27 27.7087C867.719 27.8792 868.225 27.9688 868.74 27.969H892.24C892.607 27.969 892.86 27.8534 893 27.6221C894.473 25.178 897.313 24.0081 901.52 24.1124ZM735.73 61.5563C736.017 73.863 736.07 89.0265 735.89 107.047C735.89 107.328 735.98 107.341 736.16 107.088L743.17 97.5446C743.323 97.327 743.31 97.1161 743.13 96.9121C739.517 92.7584 740.68 89.5616 746.62 87.3215C746.92 87.2082 747.07 87.0359 747.07 86.8046C747.25 75.1282 747.28 66.7098 747.16 61.5495C746.873 49.2428 746.82 34.0793 747 16.0591C747 15.7779 746.91 15.7643 746.73 16.0182L739.72 25.5612C739.567 25.7788 739.58 25.9897 739.76 26.1937C743.373 30.3474 742.21 33.5442 736.27 35.7843C735.97 35.8976 735.82 36.07 735.82 36.3012C735.64 47.9776 735.61 56.396 735.73 61.5563ZM907.71 25.4659C907.683 25.4989 907.67 25.5365 907.671 25.5748C907.673 25.613 907.69 25.6506 907.72 25.6836C911 29.0777 910.52 34.0226 904.42 35.7027C904.274 35.7453 904.15 35.8157 904.063 35.9052C903.976 35.9947 903.929 36.0993 903.93 36.206V112.114C903.93 112.74 904.14 112.774 904.56 112.216L911.4 103.197C911.469 103.109 911.5 103.01 911.489 102.91C911.478 102.81 911.427 102.714 911.34 102.632C907.87 99.4831 908.73 94.5927 914.82 93.0827C915.187 92.992 915.37 92.8106 915.37 92.5385V16.1067C915.37 15.3766 915.133 15.3381 914.66 15.991L907.71 25.4659ZM693.13 31.6108C693.405 31.4226 693.617 31.1957 693.755 30.943C693.892 30.6903 693.952 30.4168 693.93 30.1382C693.909 29.8596 693.808 29.5812 693.631 29.319C693.455 29.0568 693.207 28.816 692.903 28.6101C692.598 28.4043 692.242 28.2376 691.856 28.1195C691.469 28.0014 691.059 27.9342 690.649 27.9217C690.239 27.9093 689.838 27.9519 689.467 28.047C689.097 28.1422 688.764 28.288 688.49 28.4763C688.215 28.6645 688.003 28.8915 687.865 29.1441C687.728 29.3968 687.668 29.6703 687.689 29.9489C687.711 30.2275 687.812 30.5059 687.989 30.7681C688.165 31.0303 688.412 31.2712 688.717 31.477C689.022 31.6828 689.378 31.8495 689.764 31.9676C690.151 32.0857 690.561 32.1529 690.971 32.1654C691.381 32.1778 691.782 32.1352 692.153 32.0401C692.523 31.9449 692.855 31.7991 693.13 31.6108ZM735.404 31.4074C735.899 30.9858 736.107 30.4372 735.984 29.8821C735.86 29.327 735.415 28.8109 734.745 28.4474C734.076 28.0839 733.237 27.9027 732.414 27.9437C731.591 27.9847 730.85 28.2446 730.356 28.6661C729.861 29.0877 729.652 29.6363 729.776 30.1914C729.9 30.7465 730.345 31.2626 731.015 31.6261C731.684 31.9896 732.523 32.1708 733.346 32.1298C734.169 32.0888 734.91 31.8289 735.404 31.4074ZM862.23 30.0163C862.23 29.4625 861.906 28.9314 861.331 28.5398C860.755 28.1482 859.974 27.9282 859.16 27.9282C858.346 27.9282 857.565 28.1482 856.989 28.5398C856.413 28.9314 856.09 29.4625 856.09 30.0163C856.09 30.2906 856.169 30.5621 856.324 30.8154C856.478 31.0688 856.704 31.299 856.989 31.4929C857.274 31.6868 857.613 31.8406 857.985 31.9455C858.358 32.0505 858.757 32.1045 859.16 32.1045C859.563 32.1045 859.962 32.0505 860.335 31.9455C860.707 31.8406 861.046 31.6868 861.331 31.4929C861.616 31.299 861.842 31.0688 861.996 30.8154C862.151 30.5621 862.23 30.2906 862.23 30.0163ZM904.18 30.0027C904.18 29.4345 903.848 28.8895 903.257 28.4877C902.667 28.0859 901.865 27.8602 901.03 27.8602C900.195 27.8602 899.393 28.0859 898.803 28.4877C898.212 28.8895 897.88 29.4345 897.88 30.0027C897.88 30.571 898.212 31.116 898.803 31.5178C899.393 31.9196 900.195 32.1453 901.03 32.1453C901.865 32.1453 902.667 31.9196 903.257 31.5178C903.848 31.116 904.18 30.571 904.18 30.0027ZM753.22 92.729C753.22 92.1553 752.885 91.6051 752.289 91.1995C751.692 90.7939 750.883 90.566 750.04 90.566C749.197 90.566 748.388 90.7939 747.791 91.1995C747.195 91.6051 746.86 92.1553 746.86 92.729C746.86 93.3026 747.195 93.8528 747.791 94.2584C748.388 94.664 749.197 94.8919 750.04 94.8919C750.883 94.8919 751.692 94.664 752.289 94.2584C752.885 93.8528 753.22 93.3026 753.22 92.729ZM758.16 95.0144C756.35 97.5446 754.12 98.8778 749.51 98.7418C749.365 98.7353 749.22 98.759 749.094 98.8099C748.967 98.8608 748.865 98.9365 748.8 99.0274L740.2 110.74C739.959 111.067 739.846 111.43 739.87 111.795C739.894 112.16 740.055 112.515 740.338 112.826C740.62 113.137 741.015 113.393 741.485 113.571C741.954 113.749 742.483 113.842 743.02 113.842H850.16C850.507 113.842 850.76 113.737 850.92 113.529C852.033 112.069 853.757 111.06 856.09 110.502C856.45 110.416 856.63 110.244 856.63 109.985V94.8987C856.63 94.8374 856.593 94.7786 856.527 94.7352C856.462 94.6918 856.373 94.6675 856.28 94.6675H758.97C758.597 94.6675 758.327 94.7831 758.16 95.0144ZM921.11 98.5513C921.11 97.9921 920.783 97.4558 920.202 97.0603C919.621 96.6649 918.832 96.4427 918.01 96.4427C917.188 96.4427 916.399 96.6649 915.818 97.0603C915.237 97.4558 914.91 97.9921 914.91 98.5513C914.91 99.1105 915.237 99.6469 915.818 100.042C916.399 100.438 917.188 100.66 918.01 100.66C918.832 100.66 919.621 100.438 920.202 100.042C920.783 99.6469 921.11 99.1105 921.11 98.5513ZM736.17 115.767C736.17 115.191 735.834 114.639 735.236 114.232C734.637 113.825 733.826 113.597 732.98 113.597C732.134 113.597 731.322 113.825 730.724 114.232C730.126 114.639 729.79 115.191 729.79 115.767C729.79 116.342 730.126 116.894 730.724 117.301C731.322 117.708 732.134 117.936 732.98 117.936C733.826 117.936 734.637 117.708 735.236 117.301C735.834 116.894 736.17 116.342 736.17 115.767ZM862.32 115.753C862.32 115.19 861.991 114.65 861.406 114.252C860.821 113.854 860.027 113.631 859.2 113.631C858.372 113.631 857.579 113.854 856.994 114.252C856.409 114.65 856.08 115.19 856.08 115.753C856.08 116.316 856.409 116.856 856.994 117.254C857.579 117.652 858.372 117.875 859.2 117.875C860.027 117.875 860.821 117.652 861.406 117.254C861.991 116.856 862.32 116.316 862.32 115.753ZM693.98 121.297C693.98 120.734 693.651 120.194 693.066 119.796C692.481 119.398 691.687 119.174 690.86 119.174C690.032 119.174 689.239 119.398 688.654 119.796C688.069 120.194 687.74 120.734 687.74 121.297C687.74 121.859 688.069 122.399 688.654 122.797C689.239 123.195 690.032 123.419 690.86 123.419C691.687 123.419 692.481 123.195 693.066 122.797C693.651 122.399 693.98 121.859 693.98 121.297ZM903.369 122.964C903.647 122.778 903.862 122.552 904.004 122.301C904.146 122.049 904.21 121.777 904.194 121.498C904.178 121.22 904.081 120.942 903.91 120.679C903.738 120.416 903.495 120.174 903.195 119.967C902.588 119.548 901.783 119.296 900.957 119.266C900.131 119.235 899.352 119.43 898.791 119.806C898.513 119.992 898.297 120.218 898.156 120.469C898.014 120.721 897.95 120.993 897.966 121.272C897.982 121.55 898.079 121.828 898.25 122.091C898.422 122.354 898.665 122.596 898.965 122.803C899.572 123.222 900.377 123.474 901.203 123.504C902.029 123.534 902.808 123.34 903.369 122.964ZM736.19 144.389C736.19 144.106 736.108 143.827 735.949 143.566C735.791 143.305 735.558 143.068 735.264 142.869C734.971 142.669 734.623 142.511 734.239 142.403C733.856 142.295 733.445 142.239 733.03 142.239C732.192 142.239 731.388 142.466 730.795 142.869C730.203 143.272 729.87 143.819 729.87 144.389C729.87 144.959 730.203 145.505 730.795 145.908C731.388 146.312 732.192 146.538 733.03 146.538C733.445 146.538 733.856 146.482 734.239 146.374C734.623 146.266 734.971 146.108 735.264 145.908C735.558 145.709 735.791 145.472 735.949 145.211C736.108 144.95 736.19 144.671 736.19 144.389ZM860.738 146.27C861.407 146 861.877 145.546 862.046 145.007C862.215 144.469 862.069 143.89 861.639 143.398C861.427 143.155 861.151 142.94 860.828 142.766C860.505 142.593 860.141 142.463 859.757 142.385C859.373 142.308 858.976 142.283 858.589 142.314C858.202 142.344 857.832 142.428 857.502 142.562C856.833 142.832 856.363 143.286 856.194 143.824C856.025 144.363 856.171 144.942 856.601 145.433C856.813 145.677 857.089 145.892 857.412 146.065C857.735 146.239 858.099 146.369 858.483 146.446C858.867 146.524 859.264 146.548 859.651 146.518C860.038 146.488 860.408 146.403 860.738 146.27Z" fill="#0042F7"/>
</svg>
